<?xml version="1.0" encoding="utf-8"?>
<!-- Generator: Adobe Illustrator 24.0.1, SVG Export Plug-In . SVG Version: 6.00 Build 0)  -->
<svg version="1.1" id="Calque_1" xmlns="http://www.w3.org/2000/svg" xmlns:xlink="http://www.w3.org/1999/xlink" x="0px" y="0px"
	 viewBox="0 0 62.2 61.3" style="enable-background:new 0 0 62.2 61.3;" xml:space="preserve">
<style type="text/css">
	.st0{fill:#00005B;}
	.st1{fill:#9999FF;}
</style>
<g id="Layer_2_1_-8" transform="matrix(0.41666667,0,0,0.41666667,55,0)">
	<g id="Surfaces">
		<g id="Video_Audio_Surface">
			<g id="Outline_no_shadow-3">
				<path id="path2194" class="st0" d="M-101.3,7.2h87.9c13.3,0,24.1,10.8,24.1,24.1v84.5c0,13.3-10.8,24.1-24.1,24.1h-87.9
					c-13.3,0-24.1-10.8-24.1-24.1V31.3C-125.4,18-114.6,7.2-101.3,7.2z"/>
			</g>
		</g>
	</g>
	<g id="Outlined_Mnemonics_Logos">
		<g id="Ae">
			<path id="path2199" class="st1" d="M-70.7,86.6h-21.1l-4.3,13.4c-0.1,0.5-0.6,0.9-1.1,0.8h-10.7c-0.6,0-0.8-0.3-0.6-1l18.3-52.3
				c0.2-0.6,0.3-1.1,0.6-1.8c0.2-1.2,0.3-2.4,0.3-3.7c-0.1-0.3,0.2-0.6,0.5-0.6c0.1,0,0.1,0,0.2,0h14.5c0.4,0,0.7,0.2,0.7,0.5
				l20.7,58.1c0.2,0.6,0,0.9-0.6,0.9h-11.8c-0.4,0.1-0.8-0.2-0.9-0.6L-70.7,86.6z M-88.5,75.3h14.4c-0.3-1.2-0.8-2.6-1.3-4.1
				c-0.5-1.5-1-3.2-1.5-4.9c-0.6-1.8-1.1-3.5-1.6-5.2c-0.6-1.8-1.1-3.4-1.5-5c-0.5-1.6-0.9-3.1-1.2-4.4h-0.1
				c-0.5,2.4-1.1,4.9-1.9,7.3c-0.9,2.7-1.7,5.6-2.6,8.4C-86.8,70.3-87.7,72.9-88.5,75.3L-88.5,75.3z"/>
			<path id="path2201" class="st1" d="M-19.1,81.4h-18c0.2,1.8,0.8,3.5,1.8,5c1,1.5,2.4,2.7,4.1,3.4c2.3,1,4.8,1.5,7.3,1.4
				c2-0.1,4-0.2,5.9-0.6c1.8-0.2,3.5-0.7,5-1.3c0.3-0.2,0.5-0.1,0.5,0.5v8.7c0,0.2-0.1,0.5-0.1,0.7c-0.1,0.2-0.2,0.3-0.4,0.4
				c-1.8,0.8-3.7,1.4-5.7,1.7c-2.7,0.5-5.3,0.7-8,0.7c-4.3,0-7.9-0.7-10.9-2c-2.8-1.2-5.2-3.1-7.1-5.4c-1.8-2.2-3.1-4.7-3.9-7.4
				c-0.8-2.7-1.2-5.4-1.2-8.3c0-3.1,0.5-6.1,1.4-9c0.9-2.8,2.3-5.4,4.3-7.8c1.9-2.3,4.2-4.1,6.9-5.4c2.7-1.3,5.8-1.8,9.5-1.8
				c3-0.1,6,0.5,8.8,1.8c2.3,1,4.4,2.6,6,4.5c1.5,1.9,2.7,4.1,3.4,6.5c0.7,2.3,1.1,4.6,1.1,6.9c0,1.4-0.1,2.6-0.1,3.6
				c-0.1,1.1-0.2,1.9-0.2,2.4c-0.1,0.4-0.4,0.7-0.8,0.7c-0.3,0-1,0.1-1.9,0.1c-0.9,0.1-2,0.2-3.3,0.2
				C-16.3,81.6-17.7,81.4-19.1,81.4L-19.1,81.4z M-37.1,73.1h12c1.5,0,2.6,0,3.2-0.1c0.5-0.1,0.9-0.2,1.3-0.5V72
				c0-0.7-0.1-1.4-0.3-2.1c-1-3.2-4-5.3-7.4-5.2c-3.1-0.2-6.1,1.5-7.5,4.3C-36.6,70.3-37,71.7-37.1,73.1z"/>
		</g>
	</g>
</g>
</svg>
