<?xml version="1.0" encoding="utf-8"?>
<!-- Generator: Adobe Illustrator 24.0.1, SVG Export Plug-In . SVG Version: 6.00 Build 0)  -->
<svg version="1.1" id="Calque_1" xmlns="http://www.w3.org/2000/svg" xmlns:xlink="http://www.w3.org/1999/xlink" x="0px" y="0px"
	 viewBox="0 0 62.2 61.3" style="enable-background:new 0 0 62.2 61.3;" xml:space="preserve">
<style type="text/css">
	.st0{fill:#00005B;}
	.st1{fill:#9999FF;}
</style>
<sodipodi:namedview  bordercolor="#666666" borderopacity="1" fit-margin-bottom="0" fit-margin-left="0" fit-margin-right="0" fit-margin-top="0" gridtolerance="10" guidetolerance="10" id="namedview1580" objecttolerance="10" pagecolor="#ffffff" showgrid="true" showguides="true">
	<inkscape:grid  id="grid2369" originx="670" originy="333" type="xygrid"></inkscape:grid>
	<sodipodi:guide  id="guide2373" orientation="1,0" position="160,203.25003"></sodipodi:guide>
</sodipodi:namedview>
<g id="Layer_2_1_-8" transform="matrix(0.41666667,0,0,0.41666667,55,0)">
	<g id="Surfaces">
		<g id="Video_Audio_Surface">
			<g id="Outline_no_shadow-3">
				<path id="path2194" class="st0" d="M-102.4,5.5h90.1c13.7,0,24.7,11,24.7,24.7v86.6c0,13.7-11,24.7-24.7,24.7h-90.1
					c-13.7,0-24.7-11-24.7-24.7V30.2C-127.1,16.6-116.1,5.5-102.4,5.5z"/>
			</g>
		</g>
	</g>
	<g id="Outlined_Mnemonics_Logos">
		<g id="Ae">
			<path id="path2199" class="st1" d="M-71.1,86.9h-21.6l-4.4,13.7c-0.1,0.5-0.6,0.9-1.1,0.8h-10.9c-0.6,0-0.8-0.3-0.6-1l18.7-53.7
				c0.2-0.6,0.3-1.1,0.6-1.8c0.2-1.2,0.3-2.5,0.3-3.8c-0.1-0.3,0.2-0.6,0.5-0.6c0.1,0,0.1,0,0.2,0h14.9c0.4,0,0.7,0.2,0.8,0.5
				l21.2,59.6c0.2,0.6,0,0.9-0.6,0.9h-12.2c-0.4,0.1-0.8-0.2-0.9-0.6L-71.1,86.9z M-89.3,75.4h14.8c-0.3-1.2-0.8-2.7-1.3-4.2
				c-0.5-1.6-1-3.3-1.6-5c-0.6-1.8-1.1-3.5-1.7-5.3c-0.6-1.8-1.1-3.5-1.6-5.2c-0.5-1.6-0.9-3.1-1.3-4.5h-0.1c-0.5,2.5-1.2,5-2,7.5
				c-0.9,2.8-1.7,5.7-2.7,8.6C-87.5,70.2-88.5,72.9-89.3,75.4L-89.3,75.4z"/>
			<path id="path2201" class="st1" d="M-18.2,81.6h-18.4c0.2,1.8,0.8,3.6,1.8,5.2c1,1.6,2.5,2.8,4.2,3.5c2.3,1,4.9,1.5,7.4,1.5
				c2-0.1,4.1-0.2,6-0.6c1.8-0.2,3.5-0.7,5.2-1.3c0.3-0.2,0.5-0.1,0.5,0.5v8.9c0,0.2-0.1,0.5-0.1,0.7c-0.1,0.2-0.2,0.3-0.4,0.4
				c-1.9,0.8-3.8,1.4-5.8,1.7c-2.7,0.5-5.5,0.8-8.3,0.7c-4.4,0-8.1-0.7-11.2-2c-2.9-1.2-5.3-3.1-7.3-5.5c-1.9-2.3-3.2-4.8-4-7.6
				c-0.8-2.7-1.2-5.6-1.2-8.5c0-3.1,0.5-6.2,1.5-9.2c0.9-2.9,2.4-5.6,4.4-8c1.9-2.3,4.3-4.2,7-5.5c2.7-1.3,6-1.8,9.7-1.8
				c3.1-0.1,6.2,0.5,9,1.8c2.4,1,4.5,2.6,6.1,4.7c1.5,2,2.7,4.2,3.5,6.6c0.8,2.3,1.1,4.7,1.1,7.1c0,1.4-0.1,2.6-0.1,3.7
				c-0.1,1.1-0.2,1.9-0.2,2.4c-0.1,0.4-0.4,0.8-0.8,0.8c-0.3,0-1,0.1-1.9,0.1c-0.9,0.1-2,0.2-3.4,0.2
				C-15.3,81.8-16.7,81.6-18.2,81.6L-18.2,81.6z M-36.6,73.1h12.3c1.5,0,2.6,0,3.3-0.1c0.5-0.1,0.9-0.2,1.3-0.5V72
				c0-0.8-0.1-1.5-0.3-2.2c-1-3.3-4.1-5.5-7.6-5.3c-3.2-0.2-6.2,1.5-7.7,4.4C-36,70.3-36.4,71.6-36.6,73.1z"/>
		</g>
	</g>
</g>
</svg>
