<?xml version="1.0" encoding="utf-8"?>
<!-- Generator: Adobe Illustrator 24.0.1, SVG Export Plug-In . SVG Version: 6.00 Build 0)  -->
<svg version="1.1" id="Calque_1" xmlns="http://www.w3.org/2000/svg" xmlns:xlink="http://www.w3.org/1999/xlink" x="0px" y="0px"
	 viewBox="0 0 62.2 61.3" style="enable-background:new 0 0 62.2 61.3;" xml:space="preserve">
<style type="text/css">
	.st0{fill:#563D7C;}
	.st1{fill:#FFFFFF;}
</style>
<sodipodi:namedview  bordercolor="#666666" borderopacity="1" fit-margin-bottom="0" fit-margin-left="0" fit-margin-right="0" fit-margin-top="0" gridtolerance="10" guidetolerance="10" id="namedview1580" objecttolerance="10" pagecolor="#ffffff" showgrid="true" showguides="true">
	<inkscape:grid  id="grid2369" originx="670" originy="333" type="xygrid"></inkscape:grid>
	<sodipodi:guide  id="guide2373" orientation="1,0" position="160,203.25003"></sodipodi:guide>
</sodipodi:namedview>
<g>
	<path class="st0" d="M2.8,51.7c0,4,3.3,7.3,7.3,7.3h42.1c4,0,7.3-3.3,7.3-7.3V9.6c0-4-3.3-7.3-7.3-7.3H10.1c-4,0-7.3,3.3-7.3,7.3
		V51.7L2.8,51.7z"/>
	<path class="st1" d="M26.3,27.4v-8h7.1c0.7,0,1.3,0.1,1.9,0.2c0.6,0.1,1.2,0.3,1.7,0.6c0.5,0.3,0.9,0.7,1.2,1.2
		c0.3,0.5,0.4,1.2,0.4,2c0,1.4-0.4,2.5-1.3,3.1c-0.9,0.6-2,1-3.3,1L26.3,27.4L26.3,27.4z M18.7,13.5v34.3h16.6c1.5,0,3-0.2,4.5-0.6
		s2.8-1,3.9-1.8c1.1-0.8,2-1.8,2.7-3.1c0.7-1.3,1-2.8,1-4.5c0-2.1-0.5-4-1.6-5.5c-1-1.5-2.6-2.6-4.7-3.2c1.5-0.7,2.7-1.7,3.5-2.8
		c0.8-1.2,1.2-2.6,1.2-4.3c0-1.6-0.3-2.9-0.8-4c-0.5-1.1-1.3-2-2.2-2.6c-1-0.7-2.1-1.1-3.5-1.4c-1.3-0.3-2.8-0.4-4.5-0.4L18.7,13.5
		L18.7,13.5z M26.3,41.9v-9.4h8.2c1.6,0,2.9,0.4,3.9,1.1c1,0.8,1.5,2,1.5,3.8c0,0.9-0.2,1.6-0.5,2.2c-0.3,0.6-0.7,1-1.2,1.4
		c-0.5,0.3-1.1,0.6-1.8,0.7c-0.7,0.1-1.4,0.2-2.1,0.2H26.3L26.3,41.9z"/>
</g>
</svg>
