<?xml version="1.0" encoding="utf-8"?>
<!-- Generator: Adobe Illustrator 24.0.1, SVG Export Plug-In . SVG Version: 6.00 Build 0)  -->
<svg version="1.1" id="Calque_1" xmlns="http://www.w3.org/2000/svg" xmlns:xlink="http://www.w3.org/1999/xlink" x="0px" y="0px"
	 viewBox="0 0 62.2 61.3" style="enable-background:new 0 0 62.2 61.3;" xml:space="preserve">
<style type="text/css">
	.st0{fill:#0071CE;}
	.st1{fill:#DC8327;}
	.st2{fill:#F4B21B;}
	.st3{fill:#F2D864;}
</style>
<g>
	<path class="st0" d="M51.1,47.9c-0.7,0-1.4-0.5-1.6-1.2c-0.3-0.9,0.2-1.9,1.1-2.2c3.3-1.1,5.4-3.9,5.4-7.3c0-4.3-3.5-7.7-7.7-7.7
		c-0.3,0-0.6,0-1,0.1l-1.7,0.2l-0.2-1.7c-1-7.2-7.3-12.6-14.6-12.6c-6,0-11.4,3.6-13.7,9.2l-0.4,1.1l-1.1,0
		c-5.2,0.1-9.4,4.4-9.4,9.6c0,3.8,2.2,7.2,5.6,8.8c0.9,0.4,1.3,1.4,0.9,2.3s-1.4,1.3-2.3,0.9c-4.6-2.1-7.6-6.8-7.6-11.9
		c0-6.7,5.2-12.3,11.7-13c3-6.3,9.3-10.3,16.4-10.3c8.4,0,15.8,5.9,17.7,14c6.1,0.1,11,5.1,11,11.2c0,4.8-3.1,9.1-7.7,10.5
		C51.5,47.9,51.3,47.9,51.1,47.9z"/>
	<path class="st1" d="M24.9,48.7L24.9,48.7L24.9,48.7L24.9,48.7L24.9,48.7L24.9,48.7L24.9,48.7L24.9,48.7L24.9,48.7L24.9,48.7
		L24.9,48.7L24.9,48.7L24.9,48.7L24.9,48.7L24.9,48.7L24.9,48.7L24.9,48.7L24.9,48.7L24.9,48.7L24.9,48.7L24.9,48.7L24.9,48.7
		L24.9,48.7L24.9,48.7L24.9,48.7C24.9,48.7,24.9,48.7,24.9,48.7C24.9,48.7,24.9,48.7,24.9,48.7L24.9,48.7L24.9,48.7
		C24.9,48.7,24.9,48.7,24.9,48.7C24.9,48.7,24.9,48.7,24.9,48.7L24.9,48.7L24.9,48.7L24.9,48.7C24.9,48.7,24.8,48.7,24.9,48.7
		L24.9,48.7L24.9,48.7L24.9,48.7L24.9,48.7L24.9,48.7L24.9,48.7L24.9,48.7L24.9,48.7L24.9,48.7L24.9,48.7L24.9,48.7L24.9,48.7
		L24.9,48.7L24.9,48.7L24.9,48.7L24.9,48.7L24.9,48.7L24.9,48.7L24.9,48.7L24.9,48.7L24.9,48.7L24.9,48.7L24.9,48.7
		c-0.8,0-1.5-0.6-1.5-1.4V32.2h1.2l0,0c0.2,0,0.3-0.1,0.3-0.3c0-0.1-0.1-0.2-0.2-0.3l-5.6-3.8c-0.1-0.1-0.2-0.1-0.3,0l-5.6,3.9
		c-0.1,0.1-0.2,0.2-0.1,0.3c0,0.1,0.2,0.2,0.3,0.2h1.2v15.1c0,1.1,0.9,1.9,1.9,1.9h0h8.3l0,0c0.1,0,0.1,0,0.2-0.1l0,0l0,0l0,0l0,0
		l0,0l0,0l0,0l0,0l0,0l0,0l0,0l0,0l0,0c0.1-0.1,0.1-0.1,0.1-0.2l0,0l0,0l0,0l0,0l0,0l0,0l0,0l0,0C25.1,48.9,25,48.8,24.9,48.7z"/>
	<path class="st2" d="M36.9,48.7L36.9,48.7L36.9,48.7L36.9,48.7L36.9,48.7L36.9,48.7L36.9,48.7L36.9,48.7L36.9,48.7L36.9,48.7
		L36.9,48.7L36.9,48.7L36.9,48.7L36.9,48.7L36.9,48.7L36.9,48.7L36.9,48.7L36.9,48.7L36.9,48.7L36.9,48.7L36.9,48.7L36.9,48.7
		L36.9,48.7L36.9,48.7L36.9,48.7L36.9,48.7L36.9,48.7L36.9,48.7L36.9,48.7L36.9,48.7L36.9,48.7L36.9,48.7L36.9,48.7L36.9,48.7
		C36.9,48.7,36.8,48.7,36.9,48.7L36.9,48.7L36.9,48.7L36.9,48.7L36.9,48.7L36.9,48.7L36.9,48.7L36.9,48.7L36.9,48.7L36.9,48.7
		L36.9,48.7L36.9,48.7L36.9,48.7L36.9,48.7L36.9,48.7L36.9,48.7L36.9,48.7L36.9,48.7L36.9,48.7L36.9,48.7L36.9,48.7L36.9,48.7
		L36.9,48.7L36.9,48.7c-0.8,0-1.5-0.6-1.5-1.4V35.6h1.2l0,0c0.2,0,0.3-0.1,0.3-0.3c0-0.1-0.1-0.2-0.2-0.3l-5.6-3.8
		c-0.1-0.1-0.2-0.1-0.3,0L25.2,35c-0.1,0.1-0.2,0.2-0.1,0.3c0,0.1,0.2,0.2,0.3,0.2h1.2v11.7c0,1.1,0.9,1.9,1.9,1.9h0h8.3l0,0
		c0.1,0,0.1,0,0.2-0.1l0,0l0,0l0,0l0,0l0,0l0,0l0,0l0,0l0,0l0,0l0,0l0,0l0,0c0.1-0.1,0.1-0.1,0.1-0.2l0,0l0,0l0,0l0,0l0,0l0,0l0,0
		l0,0C37.1,48.9,37,48.8,36.9,48.7z"/>
	<path class="st3" d="M48.9,48.7L48.9,48.7L48.9,48.7L48.9,48.7L48.9,48.7L48.9,48.7L48.9,48.7L48.9,48.7L48.9,48.7L48.9,48.7
		L48.9,48.7L48.9,48.7L48.9,48.7L48.9,48.7L48.9,48.7L48.9,48.7L48.9,48.7L48.9,48.7L48.9,48.7L48.9,48.7L48.9,48.7L48.9,48.7
		L48.9,48.7L48.9,48.7L48.9,48.7L48.9,48.7L48.9,48.7L48.9,48.7L48.9,48.7L48.9,48.7L48.9,48.7L48.9,48.7L48.9,48.7L48.9,48.7
		C48.9,48.7,48.9,48.7,48.9,48.7L48.9,48.7L48.9,48.7L48.9,48.7L48.9,48.7L48.9,48.7L48.9,48.7L48.9,48.7L48.9,48.7L48.9,48.7
		L48.9,48.7L48.9,48.7L48.9,48.7L48.9,48.7L48.9,48.7L48.9,48.7L48.9,48.7L48.9,48.7L48.9,48.7L48.9,48.7L48.9,48.7L48.9,48.7
		L48.9,48.7L48.9,48.7c-0.8,0-1.5-0.6-1.5-1.4v-8.4h1.2l0,0c0.2,0,0.3-0.1,0.3-0.3c0-0.1-0.1-0.2-0.2-0.3l-5.6-3.8
		c-0.1-0.1-0.2-0.1-0.3,0l-5.6,3.9c-0.1,0.1-0.2,0.2-0.1,0.3c0,0.1,0.2,0.2,0.3,0.2h1.2v8.4c0,1.1,0.9,1.9,1.9,1.9h0h8.3l0,0
		c0.1,0,0.1,0,0.2-0.1l0,0l0,0l0,0l0,0l0,0l0,0l0,0l0,0l0,0l0,0l0,0l0,0l0,0c0.1-0.1,0.1-0.1,0.1-0.2l0,0l0,0l0,0l0,0l0,0l0,0l0,0
		l0,0C49.1,48.9,49,48.8,48.9,48.7z"/>
</g>
</svg>
