<?xml version="1.0" encoding="utf-8"?>
<!-- Generator: Adobe Illustrator 24.0.1, SVG Export Plug-In . SVG Version: 6.00 Build 0)  -->
<svg version="1.1" id="Calque_1" xmlns="http://www.w3.org/2000/svg" xmlns:xlink="http://www.w3.org/1999/xlink" x="0px" y="0px"
	 viewBox="0 0 62.2 61.3" style="enable-background:new 0 0 62.2 61.3;" xml:space="preserve">
<style type="text/css">
	.st0{fill:#0170BA;}
	.st1{fill:#29A9DF;}
	.st2{fill:#CFCFCF;}
	.st3{fill:#FFFFFF;}
</style>
<sodipodi:namedview  bordercolor="#666666" borderopacity="1" fit-margin-bottom="0" fit-margin-left="0" fit-margin-right="0" fit-margin-top="0" gridtolerance="10" guidetolerance="10" id="namedview1580" objecttolerance="10" pagecolor="#ffffff" showgrid="true" showguides="true">
	<inkscape:grid  id="grid2369" originx="670" originy="333" type="xygrid"></inkscape:grid>
	<sodipodi:guide  id="guide2373" orientation="1,0" position="160,203.25003"></sodipodi:guide>
</sodipodi:namedview>
<g>
	<g id="_x23_0170baff">
		<path class="st0" d="M6.1,2.3c16.7,0,33.3,0,50,0c-0.9,10.4-1.8,20.7-2.8,31.1c-0.6,6.6-1.2,13.2-1.8,19.9c-3.6,0.9-7.1,2-10.6,3
			c-3.3,1-6.6,1.8-9.8,2.8H31c-3.1-0.9-6.2-1.7-9.4-2.7c-3.7-1-7.3-2.1-11-3.1c-0.5-5-0.9-9.9-1.3-14.9C8.5,29.2,7.7,20,6.9,10.9
			C6.6,8.1,6.4,5.3,6.1,2.6V2.3 M31.2,6.4c0,2,0,4,0,6c-5.7,0-11.4,0-17.2,0c0.1,1.9,0.4,3.9,0.6,5.8c5.3,0.2,10.6,0,16,0.2
			c-4.7,2.1-9.4,4.1-14,6.1c-0.4,0.2-0.8,0.3-1.2,0.6c0,2.1,0.4,4.2,0.5,6.4c2.8,0,5.7-0.1,8.5-0.1c2.3,0,4.5,0,6.8,0
			c-0.1,3.5,0,7-0.1,10.5c-1.5-0.2-3-0.6-4.6-0.8c-1.2-0.3-2.4-0.4-3.6-0.7c-0.2-1.7-0.3-3.4-0.4-5C22.2,35,21.8,35,21.5,35
			c-1.7,0-3.4,0-5.2,0c0.2,3.2,0.5,6.4,1,9.6c1.7,0.4,3.4,0.9,5.1,1.3c2.6,0.7,5.2,1.3,7.8,2c0.3,0.1,0.6,0.2,0.9,0.2
			c0.2,2.1,0,4.3,0.1,6.4c0.6-0.1,1.2-0.2,1.8-0.4c4.9-1.3,9.8-2.7,14.7-4c0.2-1.9,0.4-3.9,0.6-5.8c0.5-5.9,1-11.8,1.6-17.6
			c0.6-6.7,1.2-13.5,1.8-20.2C44.8,6.4,38,6.4,31.2,6.4z"/>
	</g>
	<g id="_x23_29a9dfff">
		<path class="st1" d="M31.2,6.4c6.8,0,13.6,0,20.4,0c-0.6,6.7-1.2,13.5-1.8,20.2c-0.5,5.9-1.1,11.8-1.6,17.6
			c-0.2,1.9-0.3,3.9-0.6,5.8c-4.9,1.3-9.8,2.7-14.7,4c-0.6,0.2-1.2,0.3-1.8,0.4c0-2.1,0.1-4.3-0.1-6.4c0,0,0.1,0,0.2,0
			c4.6-1.1,9.1-2.4,13.7-3.6c0.6-6.5,1.2-12.9,1.6-19.4c-3.9,0-7.8,0-11.6,0c-0.6,0-1.1,0-1.7,0c2.1-1.1,4.3-1.9,6.4-2.9
			c2.1-0.9,4.1-1.8,6.2-2.7c0.4-0.2,0.8-0.3,1.2-0.6c0.1-0.5,0.1-1,0.2-1.5c0.1-1.6,0.3-3.3,0.4-4.9c-5.5,0-11,0-16.5,0
			C31.2,10.4,31.1,8.4,31.2,6.4z"/>
		<path class="st1" d="M31.2,31.2c2.7,0,5.3,0,8,0c-0.1,2.7-0.4,5.4-0.5,8.1c-1.6,0.5-3.3,1-4.9,1.5c-0.9,0.3-1.8,0.5-2.6,0.9
			C31.2,38.2,31.1,34.7,31.2,31.2z"/>
	</g>
	<g id="_x23_cfcfcfff">
		<path class="st2" d="M14,12.4c5.7,0,11.4,0,17.2,0c0.1,6.3,0,12.6,0.1,18.9c-2.3,0-4.5,0-6.8,0c-2.8,0-5.7,0-8.5,0.1
			c-0.2-2.1-0.5-4.2-0.5-6.4c0.4-0.3,0.8-0.4,1.2-0.6c4.7-2,9.4-4,14-6.1c-5.3-0.2-10.6,0-16-0.2C14.3,16.2,14.1,14.3,14,12.4z"/>
		<path class="st2" d="M16.3,35c1.7,0,3.4,0,5.2,0c0.4,0,0.7,0,1.1,0.1c0.1,1.7,0.3,3.4,0.4,5c1.2,0.3,2.4,0.5,3.6,0.7
			c1.5,0.3,3,0.6,4.6,0.8c0.1,2.1-0.1,4.3,0.1,6.4c0,0-0.1,0-0.2,0c-0.3,0-0.6-0.1-0.9-0.2c-2.6-0.7-5.2-1.3-7.8-2
			c-1.7-0.5-3.4-0.9-5.1-1.3C16.8,41.5,16.5,38.2,16.3,35z"/>
	</g>
	<g id="_x23_ffffffff">
		<path class="st3" d="M31.1,12.4c5.5,0,11,0,16.5,0c-0.1,1.6-0.3,3.3-0.4,4.9c-0.1,0.5,0,1-0.2,1.5c-0.3,0.3-0.8,0.4-1.2,0.6
			c-2.1,0.9-4.1,1.8-6.2,2.7c-2.1,1-4.3,1.8-6.4,2.9c0.6,0,1.1,0,1.7,0c3.9,0,7.8,0,11.6,0c-0.4,6.5-1,12.9-1.6,19.4
			c-4.6,1.2-9.1,2.5-13.7,3.6c-0.2-2.1,0-4.3-0.1-6.4c0.8-0.4,1.7-0.6,2.6-0.9c1.6-0.5,3.3-0.9,4.9-1.5c0.1-2.7,0.4-5.4,0.5-8.1
			c-2.7,0-5.3-0.1-8,0C31.1,24.9,31.2,18.7,31.1,12.4z"/>
	</g>
</g>
</svg>
