<?xml version="1.0" encoding="utf-8"?>
<!-- Generator: Adobe Illustrator 24.0.1, SVG Export Plug-In . SVG Version: 6.00 Build 0)  -->
<svg version="1.1" id="Calque_1" xmlns="http://www.w3.org/2000/svg" xmlns:xlink="http://www.w3.org/1999/xlink" x="0px" y="0px"
	 viewBox="0 0 62.2 61.3" style="enable-background:new 0 0 62.2 61.3;" xml:space="preserve">
<style type="text/css">
	.st0{fill:#F34F29;}
</style>
<g>
	<path class="st0" d="M33.6,3.4c-1.4-1.4-3.7-1.4-5.2,0l-5.1,5.1l6.5,6.5c1.5-0.5,3.3-0.2,4.5,1c1.2,1.2,1.6,3,1,4.5l6.3,6.3
		c1.5-0.5,3.3-0.2,4.5,1c1.7,1.7,1.7,4.4,0,6.1c-1.7,1.7-4.4,1.7-6.1,0c-1.3-1.3-1.8-3.2-1.1-4.7l-6-5.9v15.4c0,0.2,1,0.5,1.3,0.8
		c1.7,1.7,1.8,4.4,0.1,6.1c-1.7,1.7-4.4,1.7-6.1,0c-1.7-1.7-1.7-4.4,0-6.1c0.4-0.4,0.4-0.7,1.4-0.9V23.2c-1.1-0.2-1-0.5-1.4-0.9
		c-1.3-1.3-1.6-3.2-0.9-4.7L20.8,11l-17,17c-1.4,1.4-1.4,3.7,0,5.2l24.8,24.8c1.4,1.4,3.7,1.4,5.2,0l24.6-24.6
		c1.4-1.4,1.4-3.7,0-5.2C58.4,28.1,33.6,3.4,33.6,3.4z"/>
</g>
</svg>
