<?xml version="1.0" encoding="utf-8"?>
<!-- Generator: Adobe Illustrator 24.0.1, SVG Export Plug-In . SVG Version: 6.00 Build 0)  -->
<svg version="1.1" id="Calque_1" xmlns="http://www.w3.org/2000/svg" xmlns:xlink="http://www.w3.org/1999/xlink" x="0px" y="0px"
	 viewBox="0 0 62.2 61.3" style="enable-background:new 0 0 62.2 61.3;" xml:space="preserve">
<sodipodi:namedview  bordercolor="#666666" borderopacity="1" fit-margin-bottom="0" fit-margin-left="0" fit-margin-right="0" fit-margin-top="0" gridtolerance="10" guidetolerance="10" id="namedview1580" objecttolerance="10" pagecolor="#ffffff" showgrid="true" showguides="true">
	<inkscape:grid  id="grid2369" originx="670" originy="333" type="xygrid"></inkscape:grid>
	<sodipodi:guide  id="guide2373" orientation="1,0" position="160,203.25003"></sodipodi:guide>
</sodipodi:namedview>
<path d="M31.1,3C15.4,3,2.8,15.7,2.8,31.4c0,12.2,7.8,23,19.4,26.9c1.4,0.2,1.9-0.6,1.9-1.3c0-0.7,0-2.9,0-5.3
	c-7.1,1.3-9-1.7-9.5-3.3c-0.6-1.6-1.6-2.9-2.9-4c-1-0.5-2.4-1.8,0-1.9c1.8,0.2,3.5,1.3,4.4,2.9c1.6,2.9,5.3,4,8.2,2.3c0,0,0,0,0,0
	c0.1-1.4,0.8-2.8,1.8-3.8c-6.3-0.7-12.9-3.2-12.9-14c0-2.8,1-5.5,2.9-7.6c-0.9-2.4-0.8-5.1,0.3-7.5c0,0,2.4-0.7,7.8,2.9
	c4.6-1.3,9.5-1.3,14.2,0c5.4-3.7,7.8-2.9,7.8-2.9c1,2.4,1.2,5.1,0.3,7.5c1.9,2.1,3,4.8,2.9,7.6c0,10.9-6.6,13.3-12.9,14
	c1.4,1.4,2.1,3.3,1.9,5.2c0,3.8,0,6.8,0,7.8c0,0.7,0.5,1.6,1.9,1.3C55,53.2,63,37.2,58,22.3C54.1,10.8,43.3,3,31.1,3z"/>
</svg>
