<?xml version="1.0" encoding="utf-8"?>
<!-- Generator: Adobe Illustrator 24.0.1, SVG Export Plug-In . SVG Version: 6.00 Build 0)  -->
<svg version="1.1" id="Calque_1" xmlns="http://www.w3.org/2000/svg" xmlns:xlink="http://www.w3.org/1999/xlink" x="0px" y="0px"
	 viewBox="0 0 62.2 61.3" style="enable-background:new 0 0 62.2 61.3;" xml:space="preserve">
<style type="text/css">
	.st0{fill:#7E57C2;}
	.st1{fill:#FFFFFF;}
</style>
<sodipodi:namedview  bordercolor="#666666" borderopacity="1" fit-margin-bottom="0" fit-margin-left="0" fit-margin-right="0" fit-margin-top="0" gridtolerance="10" guidetolerance="10" id="namedview1580" objecttolerance="10" pagecolor="#ffffff" showgrid="true" showguides="true">
	<inkscape:grid  id="grid2369" originx="670" originy="333" type="xygrid"></inkscape:grid>
	<sodipodi:guide  id="guide2373" orientation="1,0" position="160,203.25003"></sodipodi:guide>
</sodipodi:namedview>
<g id="surface1">
	<path class="st0" d="M8.2,53.6V7.7c0-3,2.4-5.4,5.4-5.4h35.1c3,0,5.4,2.4,5.4,5.4v45.9c0,3-2.4,5.4-5.4,5.4H13.6
		C10.6,59,8.2,56.6,8.2,53.6z"/>
	<path class="st1" d="M36.9,51.2V28.7c0,0,1.5-5.4-18,2.2c0,0.1,0-20.8,0-20.8l6.4,0v13.4c0,0,17.8-7,17.8,5.3v22.4L36.9,51.2z
		 M40.5,18.1h-6.8c2.4-3,4.6-8.1,4.6-8.1h7C45.4,10.1,44.2,13.4,40.5,18.1z M18.9,51.2V38.3l6.4,6.4L18.9,51.2z"/>
</g>
</svg>
