<?xml version="1.0" encoding="utf-8"?>
<!-- Generator: Adobe Illustrator 24.0.1, SVG Export Plug-In . SVG Version: 6.00 Build 0)  -->
<svg version="1.1" id="Calque_1" xmlns="http://www.w3.org/2000/svg" xmlns:xlink="http://www.w3.org/1999/xlink" x="0px" y="0px"
	 viewBox="0 0 62.2 61.3" style="enable-background:new 0 0 62.2 61.3;" xml:space="preserve">
<style type="text/css">
	.st0{fill:#E44D26;}
	.st1{fill:#F16529;}
	.st2{fill:#EBEBEB;}
	.st3{fill:#FFFFFF;}
</style>
<g>
	<polygon class="st0" points="10.7,53.3 6.1,2.3 56.1,2.3 51.5,53.3 31.1,59 	"/>
	<polygon class="st1" points="31.1,54.7 47.6,50.1 51.5,6.5 31.1,6.5 	"/>
	<polygon class="st2" points="31.1,25.4 22.8,25.4 22.2,19 31.1,19 31.1,12.7 31.1,12.7 15.4,12.7 15.6,14.4 17.1,31.7 31.1,31.7 	
		"/>
	<polygon class="st2" points="31.1,41.7 31.1,41.7 24.1,39.8 23.7,34.8 20.3,34.8 17.4,34.8 18.3,44.6 31.1,48.2 31.1,48.2 	"/>
	<polygon class="st3" points="31.1,25.4 31.1,31.7 38.8,31.7 38.1,39.8 31.1,41.7 31.1,48.2 43.9,44.6 44,43.6 45.5,27.1 45.6,25.4 
		43.9,25.4 	"/>
	<polygon class="st3" points="31.1,12.7 31.1,16.6 31.1,19 31.1,19 46.2,19 46.2,19 46.2,19 46.3,17.6 46.6,14.4 46.8,12.7 	"/>
</g>
</svg>
