<?xml version="1.0" encoding="utf-8"?>
<!-- Generator: Adobe Illustrator 24.0.1, SVG Export Plug-In . SVG Version: 6.00 Build 0)  -->
<svg version="1.1" id="Calque_1" xmlns="http://www.w3.org/2000/svg" xmlns:xlink="http://www.w3.org/1999/xlink" x="0px" y="0px"
	 viewBox="0 0 62.2 61.3" style="enable-background:new 0 0 62.2 61.3;" xml:space="preserve">
<style type="text/css">
	.st0{fill:#330000;}
	.st1{fill:#FF9A00;}
</style>
<g transform="matrix(1.000000125 0 0 1.000000125 159.9999625 83)">
	<path class="st0" d="M-147.7-80.7h37.6c5.7,0,10.3,4.6,10.3,10.3v36.1c0,5.7-4.6,10.3-10.3,10.3h-37.6c-5.7,0-10.3-4.6-10.3-10.3
		v-36.1C-158-76.1-153.4-80.7-147.7-80.7z"/>
	<g>
		<path class="st1" d="M-129.8-46.7h-9l-1.8,5.7c0,0.2-0.2,0.4-0.5,0.3h-4.6c-0.3,0-0.3-0.1-0.3-0.4l7.8-22.5
			c0.1-0.2,0.1-0.5,0.2-0.8c0.1-0.5,0.1-1,0.1-1.6c0-0.1,0.1-0.2,0.2-0.3h6.3c0.2,0,0.3,0.1,0.3,0.2l8.8,25c0.1,0.3,0,0.4-0.2,0.4
			h-5.1c-0.2,0-0.3-0.1-0.4-0.3L-129.8-46.7z M-137.4-51.6h6.2c-0.1-0.5-0.3-1.1-0.6-1.7c-0.2-0.7-0.4-1.4-0.7-2.1
			c-0.2-0.8-0.5-1.5-0.7-2.2c-0.2-0.8-0.5-1.5-0.7-2.2c-0.2-0.7-0.4-1.3-0.5-1.9h0c-0.2,1-0.5,2.1-0.8,3.1c-0.4,1.2-0.7,2.4-1.1,3.6
			C-136.7-53.8-137-52.6-137.4-51.6z"/>
		<path class="st1" d="M-116.8-62c-0.8,0-1.6-0.3-2.2-0.8c-0.6-0.6-0.8-1.4-0.8-2.2c0-0.8,0.3-1.6,0.9-2.2c0.6-0.6,1.4-0.8,2.2-0.8
			c0.9,0,1.7,0.3,2.2,0.8c0.5,0.6,0.8,1.4,0.8,2.2c0,0.8-0.3,1.6-0.8,2.2C-115.2-62.3-116-62-116.8-62L-116.8-62z M-119.5-41v-18.7
			c0-0.2,0.1-0.3,0.3-0.3h4.8c0.2,0,0.3,0.1,0.3,0.3V-41c0,0.3-0.1,0.4-0.3,0.4h-4.7C-119.4-40.6-119.5-40.8-119.5-41z"/>
	</g>
</g>
</svg>
