<?xml version="1.0" encoding="utf-8"?>
<!-- Generator: Adobe Illustrator 24.0.1, SVG Export Plug-In . SVG Version: 6.00 Build 0)  -->
<svg version="1.1" id="Calque_1" xmlns="http://www.w3.org/2000/svg" xmlns:xlink="http://www.w3.org/1999/xlink" x="0px" y="0px"
	 viewBox="0 0 62.2 61.3" style="enable-background:new 0 0 62.2 61.3;" xml:space="preserve">
<style type="text/css">
	.st0{fill:#49021F;}
	.st1{fill:#FF3366;}
</style>
<g transform="matrix(1.000000125 0 0 1.000000125 151.9999975 78.999995)">
	<path class="st0" d="M-139.7-76.7h37.6c5.7,0,10.3,4.6,10.3,10.3v36.1c0,5.7-4.6,10.3-10.3,10.3h-37.6c-5.7,0-10.3-4.6-10.3-10.3
		v-36.1C-150-72.1-145.4-76.7-139.7-76.7z"/>
	<g>
		<path class="st1" d="M-128.8-61.9V-37c0,0.3-0.1,0.4-0.3,0.4h-4.7c-0.2,0-0.3-0.1-0.3-0.4v-24.9c0-0.2,0.1-0.3,0.3-0.3h4.7
			C-129-62.2-128.9-62.1-128.8-61.9C-128.8-61.9-128.8-61.9-128.8-61.9z"/>
		<path class="st1" d="M-114.9-36.2c-1.8,0-3.6-0.3-5.2-1.1c-1.5-0.7-2.8-1.9-3.7-3.3c-0.9-1.5-1.3-3.3-1.3-5.5
			c0-1.8,0.4-3.6,1.3-5.1c0.9-1.6,2.3-2.9,3.9-3.8c1.7-0.9,3.7-1.4,6.1-1.4c0.1,0,0.3,0,0.5,0c0.2,0,0.5,0,0.8,0V-64
			c0-0.2,0.1-0.3,0.2-0.3h4.9c0.1,0,0.2,0.1,0.2,0.2V-41c0,0.4,0,0.9,0,1.5c0,0.5,0.1,1,0.1,1.4c0,0.2-0.1,0.3-0.2,0.4
			c-1.3,0.5-2.6,0.9-3.9,1.2C-112.4-36.4-113.6-36.2-114.9-36.2L-114.9-36.2z M-112.5-41.1v-10.7c-0.2,0-0.4-0.1-0.7-0.1
			c-0.3,0-0.5,0-0.8,0c-0.9,0-1.9,0.2-2.7,0.6c-0.8,0.4-1.5,1-2.1,1.8s-0.8,1.8-0.8,3.1c0,0.8,0.1,1.7,0.4,2.5
			c0.2,0.7,0.6,1.2,1.1,1.7c0.5,0.4,1,0.8,1.6,1c0.7,0.2,1.3,0.3,2,0.3c0.4,0,0.7,0,1,0C-113.1-40.9-112.8-41-112.5-41.1
			L-112.5-41.1z"/>
	</g>
</g>
</svg>
