<?xml version="1.0" encoding="utf-8"?>
<!-- Generator: Adobe Illustrator 24.0.1, SVG Export Plug-In . SVG Version: 6.00 Build 0)  -->
<svg version="1.1" id="Calque_1" xmlns="http://www.w3.org/2000/svg" xmlns:xlink="http://www.w3.org/1999/xlink" x="0px" y="0px"
	 viewBox="0 0 62.2 61.3" style="enable-background:new 0 0 62.2 61.3;" xml:space="preserve">
<style type="text/css">
	.st0{fill:#F7DF1E;}
</style>
<g>
	<path class="st0" d="M2.8,2.3h56.7V59H2.8V2.3z"/>
	<path d="M17.7,49.7l4.3-2.6c0.8,1.5,1.6,2.7,3.4,2.7c1.8,0,2.9-0.7,2.9-3.3V28.3h5.3v18.2c0,5.5-3.2,8-8,8
		C21.4,54.6,18.9,52.3,17.7,49.7 M36.5,49.1l4.3-2.5c1.1,1.9,2.6,3.2,5.3,3.2c2.2,0,3.6-1.1,3.6-2.6c0-1.8-1.4-2.5-3.9-3.5l-1.3-0.6
		c-3.8-1.6-6.4-3.7-6.4-8c0-4,3-7,7.8-7c3.4,0,5.8,1.2,7.6,4.3L49.3,35c-0.9-1.6-1.9-2.3-3.4-2.3c-1.6,0-2.5,1-2.5,2.3
		c0,1.6,1,2.2,3.3,3.2l1.3,0.6c4.5,1.9,7.1,3.9,7.1,8.4c0,4.8-3.8,7.4-8.8,7.4C41.3,54.6,38.1,52.2,36.5,49.1"/>
</g>
</svg>
