<?xml version="1.0" encoding="utf-8"?>
<!-- Generator: Adobe Illustrator 24.0.1, SVG Export Plug-In . SVG Version: 6.00 Build 0)  -->
<svg version="1.1" id="Calque_1" xmlns="http://www.w3.org/2000/svg" xmlns:xlink="http://www.w3.org/1999/xlink" x="0px" y="0px"
	 viewBox="0 0 28.6 39.7" style="enable-background:new 0 0 28.6 39.7;" xml:space="preserve">
<style type="text/css">
	.st0{fill:url(#SVGID_1_);}
</style>
<linearGradient id="SVGID_1_" gradientUnits="userSpaceOnUse" x1="9.0567" y1="7.8287" x2="33.2129" y2="31.9849">
	<stop  offset="0" style="stop-color:#50BDDF"/>
	<stop  offset="6.835490e-02" style="stop-color:#4595B9"/>
	<stop  offset="0.1546" style="stop-color:#3A7197"/>
	<stop  offset="0.2379" style="stop-color:#31577F"/>
	<stop  offset="0.3162" style="stop-color:#2B436F"/>
	<stop  offset="0.3882" style="stop-color:#273564"/>
	<stop  offset="0.4517" style="stop-color:#252B5E"/>
	<stop  offset="0.5" style="stop-color:#24285C"/>
	<stop  offset="0.5745" style="stop-color:#27295D"/>
	<stop  offset="0.6458" style="stop-color:#302B60"/>
	<stop  offset="0.7159" style="stop-color:#3E2E65"/>
	<stop  offset="0.7852" style="stop-color:#51336C"/>
	<stop  offset="0.8539" style="stop-color:#683975"/>
	<stop  offset="0.9222" style="stop-color:#854281"/>
	<stop  offset="0.9891" style="stop-color:#AC5092"/>
	<stop  offset="1" style="stop-color:#B45397"/>
</linearGradient>
<path class="st0" d="M15,19.9L25.7,9.1c1.5-1.5,1.6-4.1,0-5.7l-1.8-1.8c-0.8-0.7-1.8-1.2-2.8-1.2c-1.1,0-2.1,0.4-2.8,1.2L2.9,17
	c-1.5,1.6-1.5,4.1,0,5.7L18.3,38c0.7,0.8,1.8,1.2,2.8,1.2c1.1,0,2.1-0.4,2.8-1.2l1.8-1.8c1.5-1.5,1.6-4.1,0-5.7L15,19.9z"/>
</svg>
