<?xml version="1.0" encoding="utf-8"?>
<!-- Generator: Adobe Illustrator 24.0.1, SVG Export Plug-In . SVG Version: 6.00 Build 0)  -->
<svg version="1.1" id="Calque_1" xmlns="http://www.w3.org/2000/svg" xmlns:xlink="http://www.w3.org/1999/xlink" x="0px" y="0px"
	 viewBox="0 0 62.2 61.3" style="enable-background:new 0 0 62.2 61.3;" xml:space="preserve">
<style type="text/css">
	.st0{fill:#0077B7;}
</style>
<path class="st0" d="M54.3,2.3H7.9C5,2.3,2.8,4.6,2.8,7.4v46.4C2.8,56.7,5,59,7.9,59h46.4c2.8,0,5.1-2.3,5.1-5.1V7.4
	C59.4,4.6,57.2,2.3,54.3,2.3z M20.3,51.3c0,0.8-0.7,1.5-1.5,1.5h-6.4c-0.8,0-1.5-0.7-1.5-1.5V24.6c0-0.8,0.7-1.5,1.5-1.5h6.4
	c0.8,0,1.5,0.7,1.5,1.5V51.3z M15.6,20.6c-3.3,0-6-2.7-6-6s2.7-6,6-6s6,2.7,6,6S19,20.6,15.6,20.6z M53.5,51.4
	c0,0.8-0.6,1.4-1.4,1.4h-6.8c-0.8,0-1.4-0.6-1.4-1.4V38.9c0-1.9,0.5-8.2-4.9-8.2c-4.2,0-5.1,4.3-5.2,6.2v14.4c0,0.8-0.6,1.4-1.4,1.4
	h-6.6c-0.8,0-1.4-0.6-1.4-1.4V24.5c0-0.8,0.6-1.4,1.4-1.4h6.6c0.8,0,1.4,0.6,1.4,1.4v2.3c1.6-2.3,3.9-4.1,8.8-4.1
	c10.9,0,10.9,10.2,10.9,15.8L53.5,51.4L53.5,51.4z"/>
</svg>
