<?xml version="1.0" encoding="utf-8"?>
<!-- Generator: Adobe Illustrator 24.0.1, SVG Export Plug-In . SVG Version: 6.00 Build 0)  -->
<svg version="1.1" id="Calque_1" xmlns="http://www.w3.org/2000/svg" xmlns:xlink="http://www.w3.org/1999/xlink" x="0px" y="0px"
	 viewBox="0 0 62.2 61.3" style="enable-background:new 0 0 62.2 61.3;" xml:space="preserve">
<style type="text/css">
	.st0{fill-rule:evenodd;clip-rule:evenodd;fill:#439934;}
	.st1{fill-rule:evenodd;clip-rule:evenodd;fill:#45A538;}
	.st2{fill-rule:evenodd;clip-rule:evenodd;fill:#46A037;}
	.st3{fill-rule:evenodd;clip-rule:evenodd;fill:#409433;}
	.st4{fill-rule:evenodd;clip-rule:evenodd;fill:#4FAA41;}
	.st5{fill-rule:evenodd;clip-rule:evenodd;fill:#4AA73C;}
	.st6{fill-rule:evenodd;clip-rule:evenodd;fill:#57AE47;}
	.st7{fill-rule:evenodd;clip-rule:evenodd;fill:#60B24F;}
	.st8{fill-rule:evenodd;clip-rule:evenodd;fill:#A9AA88;}
	.st9{fill-rule:evenodd;clip-rule:evenodd;fill:#B6B598;}
	.st10{fill-rule:evenodd;clip-rule:evenodd;fill:#C2C1A7;}
	.st11{fill-rule:evenodd;clip-rule:evenodd;fill:#CECDB7;}
	.st12{fill-rule:evenodd;clip-rule:evenodd;fill:#DBDAC7;}
	.st13{fill-rule:evenodd;clip-rule:evenodd;fill:#EBE9DC;}
</style>
<g>
	<path class="st0" d="M42.3,20.8c0.7,2.2,1.3,4.4,1.5,6.6c0.2,2.8,0.1,5.6-0.5,8.4c0,0.1-0.1,0.1-0.1,0.2c-0.2,0-0.4,0-0.6,0
		c-1.5,0.2-3.1,0.5-4.6,0.7c-1.6,0.3-3.2,0.5-4.8,0.8c-0.6,0.1-1.3,0-1.5,0.8c0,0-0.1,0-0.1,0l0.1-4.7c0-3.8-0.1-7.5-0.1-11.3
		l0.7-0.1c1.2-0.2,2.4-0.4,3.7-0.6c1.5-0.2,2.9-0.5,4.4-0.7C41,21,41.6,20.9,42.3,20.8z"/>
	<path class="st1" d="M30,52.1c-0.8-0.7-1.6-1.3-2.4-2c-4.1-3.8-7-8.3-8.5-13.7c-0.4-1.5-0.7-3-0.8-4.6c-0.1-1.1-0.1-2.2-0.1-3.2
		c0.2-2.9,0.6-5.7,1.5-8.4l0-0.1c0.1,0.1,0.2,0.2,0.2,0.3c0.8,2.4,1.6,4.8,2.4,7.2c2.5,7.6,5.1,15.2,7.6,22.7c0,0.1,0.2,0.3,0.3,0.4
		C30.4,50.7,30,52.1,30,52.1z"/>
	<path class="st2" d="M42.3,20.8c-0.6,0.1-1.3,0.2-1.9,0.3c-1.5,0.2-2.9,0.4-4.4,0.7c-1.2,0.2-2.4,0.4-3.7,0.6l-0.7,0.1l0-0.5
		c0-0.4-0.1-0.8-0.1-1.2c0-2.5-0.1-5.1-0.1-7.6c0-1.6,0-3.2-0.1-4.8c0-1,0-2-0.1-3c0-0.5-0.1-1.1-0.1-1.6c0-0.3,0-0.6,0-0.9
		c0.4,0.7,0.8,1.5,1.1,2.2c0.6,1.2,1.6,2,2.5,2.9C38.2,11.7,40.7,16,42.3,20.8z"/>
	<path class="st3" d="M31.6,38.4c0,0,0.1,0,0.1,0c0.2-0.8,0.9-0.7,1.5-0.8c1.6-0.3,3.2-0.5,4.8-0.8c1.5-0.3,3.1-0.5,4.6-0.7
		c0.2,0,0.4,0,0.6,0c-0.3,1-0.5,2.1-0.9,3.1c-0.4,1.1-0.9,2.2-1.5,3.3c-0.8,1.6-1.8,3.1-3,4.5c-0.9,1.1-1.9,2.1-2.9,3
		c-0.6,0.5-1.2,1-1.8,1.5L33,51.5L32.5,51l-0.6-1.3c-0.4-1.5-0.6-3-0.6-4.6l0-0.3l0.1-1.1c0-0.4,0.1-0.8,0.1-1.2
		C31.5,41.2,31.5,39.8,31.6,38.4L31.6,38.4z"/>
	<path class="st4" d="M31.6,38.4c-0.1,1.4-0.1,2.8-0.2,4.2c0,0.4-0.1,0.8-0.1,1.2L31,43.9c-0.8-2.3-1.6-4.6-2.4-6.9
		c-1.3-3.8-2.5-7.6-3.8-11.5c-1-3.1-2.1-6.2-3.1-9.2c0-0.1-0.2-0.3-0.3-0.4l2.3-4.2c0.1,0.1,0.2,0.3,0.2,0.4
		c1.1,3.1,2.1,6.2,3.1,9.4c1.4,4.1,2.7,8.1,4.1,12.2c0.1,0.2,0.1,0.3,0.2,0.5l0.3-0.4C31.6,35.3,31.6,36.9,31.6,38.4z"/>
	<path class="st5" d="M21.4,15.9c0.1,0.1,0.2,0.2,0.3,0.4c1,3.1,2.1,6.2,3.1,9.2c1.3,3.8,2.5,7.6,3.8,11.5c0.8,2.3,1.6,4.6,2.4,6.9
		l0.4-0.1l-0.1,1.1l-0.1,0.3c-0.1,1.2-0.2,2.5-0.4,3.7c-0.1,0.6-0.2,1.2-0.4,1.8c-0.1-0.1-0.2-0.3-0.3-0.4
		c-2.5-7.6-5.1-15.2-7.6-22.7c-0.8-2.4-1.6-4.8-2.4-7.2c0-0.1-0.2-0.2-0.2-0.3C20.4,18.6,20.9,17.3,21.4,15.9z"/>
	<path class="st6" d="M31.7,33.8l-0.3,0.4c-0.1-0.2-0.2-0.3-0.2-0.5c-1.4-4.1-2.7-8.1-4.1-12.2c-1-3.1-2.1-6.2-3.1-9.4
		c0-0.1-0.2-0.3-0.2-0.4L26.5,8c0.1,0.1,0.2,0.2,0.3,0.4c0.8,2.3,1.6,4.6,2.3,6.9c0.7,2.1,1.4,4.3,2.2,6.4c0,0.1,0.2,0.2,0.3,0.4
		l0,0.5C31.6,26.3,31.6,30,31.7,33.8z"/>
	<path class="st7" d="M31.6,22c-0.1-0.1-0.3-0.2-0.3-0.4c-0.7-2.1-1.4-4.3-2.2-6.4c-0.8-2.3-1.5-4.6-2.3-6.9c0-0.1-0.2-0.2-0.3-0.4
		c0.9-0.9,1.8-1.8,2.8-2.7c0.8-0.8,1.5-1.6,1.6-2.8c0,0,0-0.1,0.1-0.2l0.2,0.6c0,0.3,0,0.6,0,0.9c0,0.5,0.1,1.1,0.1,1.6
		c0,1,0.1,2,0.1,3c0,1.6,0.1,3.2,0.1,4.8c0,2.5,0.1,5.1,0.1,7.6C31.5,21.2,31.5,21.6,31.6,22z"/>
	<path class="st8" d="M30.4,50.7c0.1-0.6,0.3-1.2,0.4-1.8c0.2-1.2,0.3-2.5,0.4-3.7l0,0l0,0c0,1.5,0.2,3.1,0.6,4.6
		c-0.1,0.1-0.2,0.2-0.2,0.3c-0.3,1-0.7,1.9-1,2.9c0,0.1-0.2,0.2-0.3,0.3L30,52.1C30,52.1,30.4,50.7,30.4,50.7z"/>
	<path class="st9" d="M30.4,53.3c0.1-0.1,0.2-0.2,0.3-0.3c0.3-1,0.7-1.9,1-2.9c0-0.1,0.2-0.2,0.2-0.3l0.6,1.3
		c-0.1,0.2-0.3,0.3-0.3,0.5L31,54.8c0,0.1-0.2,0.2-0.3,0.3C30.7,55.1,30.4,53.3,30.4,53.3z"/>
	<path class="st10" d="M30.7,55.1c0.1-0.1,0.3-0.2,0.3-0.3l1.1-3.3c0.1-0.2,0.2-0.3,0.3-0.5l0.6,0.5c-0.3,0.3-0.4,0.6-0.3,1L32.5,53
		c-0.1,0.1-0.2,0.2-0.2,0.3c-0.4,1.1-0.8,2.2-1.2,3.4c0,0.1-0.2,0.3-0.3,0.4C30.8,56.4,30.8,55.7,30.7,55.1L30.7,55.1z"/>
	<path class="st11" d="M30.9,57c0.1-0.1,0.2-0.2,0.3-0.4c0.4-1.1,0.8-2.2,1.2-3.4c0-0.1,0.2-0.2,0.2-0.3l-0.2,2.6
		c-0.1,0.1-0.2,0.1-0.2,0.2c-0.3,0.8-0.5,1.5-0.8,2.3c-0.1,0.2-0.2,0.3-0.2,0.4c-0.1-0.1-0.2-0.2-0.2-0.3
		C30.9,57.8,30.9,57.4,30.9,57z"/>
	<path class="st12" d="M31.1,58.5c0.1-0.1,0.2-0.3,0.2-0.4c0.3-0.7,0.5-1.5,0.8-2.3c0-0.1,0.1-0.1,0.2-0.2l0,1.7l-0.6,1.5
		C31.7,58.7,31.1,58.5,31.1,58.5z"/>
	<path class="st13" d="M31.7,58.7l0.6-1.5l0.1,1.7L31.7,58.7z"/>
	<path class="st11" d="M32.7,52.5c-0.1-0.4,0.1-0.7,0.3-1l0.2,0.1L32.7,52.5z"/>
	<path class="st4" d="M31.2,45.1L31.2,45.1L31.2,45.1l0-0.3C31.3,44.9,31.2,45.1,31.2,45.1z"/>
</g>
</svg>
