<?xml version="1.0" encoding="utf-8"?>
<!-- Generator: Adobe Illustrator 24.0.1, SVG Export Plug-In . SVG Version: 6.00 Build 0)  -->
<svg version="1.1" id="Calque_1" xmlns="http://www.w3.org/2000/svg" xmlns:xlink="http://www.w3.org/1999/xlink" x="0px" y="0px"
	 viewBox="0 0 94.6 92.6" style="enable-background:new 0 0 94.6 92.6;" xml:space="preserve">
<style type="text/css">
	.st0{fill:#000000;}
</style>
<path class="st0" d="M47.3,3.4C23.6,3.4,4.4,22.6,4.4,46.3s19.2,42.9,42.9,42.9c7.2,0,14-1.8,20-4.9L36.1,40v25
	c0,0.9-0.7,1.6-1.6,1.6h-2.2c-0.9,0-1.6-0.7-1.6-1.6V32c0-0.9,0.7-1.6,1.6-1.6h1.1c0,0,2.3-0.3,3,0.6c0.5,0.7,23.4,35.3,34,51.4
	c11.9-7.6,19.8-21,19.8-36.1C90.2,22.6,71,3.4,47.3,3.4z M62.8,61l-5.4-7.8V30.7c0-0.9,0.7-1.6,1.6-1.6h2.2c0.9,0,1.6,0.7,1.6,1.6
	V61z"/>
</svg>
