<?xml version="1.0" encoding="utf-8"?>
<!-- Generator: Adobe Illustrator 24.0.1, SVG Export Plug-In . SVG Version: 6.00 Build 0)  -->
<svg version="1.1" id="Calque_1" xmlns="http://www.w3.org/2000/svg" xmlns:xlink="http://www.w3.org/1999/xlink" x="0px" y="0px"
	 viewBox="0 0 140 95.8" style="enable-background:new 0 0 140 95.8;" xml:space="preserve">
<style type="text/css">
	.st0{fill:url(#SVGID_1_);}
	.st1{fill:url(#SVGID_2_);}
</style>
<g>
	
		<linearGradient id="SVGID_1_" gradientUnits="userSpaceOnUse" x1="5.566" y1="70.6201" x2="91.461" y2="-12.8079" gradientTransform="matrix(1 0 0 -1 0 98)">
		<stop  offset="0" style="stop-color:#50BCDE"/>
		<stop  offset="2.641520e-02" style="stop-color:#4CB0D3"/>
		<stop  offset="0.1397" style="stop-color:#3E80A9"/>
		<stop  offset="0.2472" style="stop-color:#335A88"/>
		<stop  offset="0.3462" style="stop-color:#2B3E70"/>
		<stop  offset="0.4335" style="stop-color:#262E61"/>
		<stop  offset="0.5" style="stop-color:#24285C"/>
		<stop  offset="0.5872" style="stop-color:#28295E"/>
		<stop  offset="0.6707" style="stop-color:#332D62"/>
		<stop  offset="0.7526" style="stop-color:#47326A"/>
		<stop  offset="0.8337" style="stop-color:#623A75"/>
		<stop  offset="0.914" style="stop-color:#854483"/>
		<stop  offset="0.9929" style="stop-color:#AF5194"/>
		<stop  offset="1" style="stop-color:#B35296"/>
	</linearGradient>
	<path class="st0" d="M90,69.8L68.9,48.7L59,58.5c-2.8,2.8-6.6,4.4-10.6,4.4s-7.8-1.6-10.6-4.4c-2.8-2.8-4.4-6.6-4.4-10.6
		s1.6-7.8,4.4-10.6l9.8-9.8L26.5,6.3l-9.8,9.8c-17.5,17.5-17.5,46,0,63.5c8.7,8.7,20.2,13.1,31.7,13.1s23-4.4,31.7-13.1L90,69.8z"/>
	
		<linearGradient id="SVGID_2_" gradientUnits="userSpaceOnUse" x1="45.5982" y1="111.8361" x2="131.4931" y2="28.4081" gradientTransform="matrix(1 0 0 -1 0 98)">
		<stop  offset="0" style="stop-color:#50BCDE"/>
		<stop  offset="2.641520e-02" style="stop-color:#4CB0D3"/>
		<stop  offset="0.1397" style="stop-color:#3E80A9"/>
		<stop  offset="0.2472" style="stop-color:#335A88"/>
		<stop  offset="0.3462" style="stop-color:#2B3E70"/>
		<stop  offset="0.4335" style="stop-color:#262E61"/>
		<stop  offset="0.5" style="stop-color:#24285C"/>
		<stop  offset="0.5872" style="stop-color:#28295E"/>
		<stop  offset="0.6707" style="stop-color:#332D62"/>
		<stop  offset="0.7526" style="stop-color:#47326A"/>
		<stop  offset="0.8337" style="stop-color:#623A75"/>
		<stop  offset="0.914" style="stop-color:#854483"/>
		<stop  offset="0.9929" style="stop-color:#AF5194"/>
		<stop  offset="1" style="stop-color:#B35296"/>
	</linearGradient>
	<path class="st1" d="M68.7,48.8l9.8-9.8c2.8-2.8,6.6-4.4,10.6-4.4s7.8,1.6,10.6,4.4c2.8,2.8,4.4,6.6,4.4,10.6s-1.6,7.8-4.4,10.6
		L89.9,70L111,91.1l9.8-9.8c17.5-17.5,17.5-46,0-63.5s-46-17.5-63.5,0l-9.8,9.8L68.7,48.8z"/>
</g>
</svg>
