<?xml version="1.0" encoding="utf-8"?>
<!-- Generator: Adobe Illustrator 24.0.1, SVG Export Plug-In . SVG Version: 6.00 Build 0)  -->
<svg version="1.1" id="Calque_1" xmlns="http://www.w3.org/2000/svg" xmlns:xlink="http://www.w3.org/1999/xlink" x="0px" y="0px"
	 viewBox="0 0 421.2 299.7" style="enable-background:new 0 0 421.2 299.7;" xml:space="preserve">
<style type="text/css">
	.st0{fill:url(#SVGID_1_);}
	.st1{fill:url(#SVGID_2_);}
	.st2{fill:url(#SVGID_3_);}
	.st3{fill:url(#SVGID_4_);}
	.st4{fill:url(#SVGID_5_);}
	.st5{fill:url(#SVGID_6_);}
	.st6{fill:url(#SVGID_7_);}
	.st7{fill:url(#SVGID_8_);}
	.st8{fill:url(#SVGID_9_);}
	.st9{fill:url(#SVGID_10_);}
	.st10{fill:url(#SVGID_11_);}
	.st11{fill:url(#SVGID_12_);}
	.st12{fill:url(#SVGID_13_);}
	.st13{fill:url(#SVGID_14_);}
</style>
<g>
	<linearGradient id="SVGID_1_" gradientUnits="userSpaceOnUse" x1="56.7137" y1="55.1885" x2="265.4012" y2="257.8824">
		<stop  offset="0" style="stop-color:#50BCDE"/>
		<stop  offset="2.641520e-02" style="stop-color:#4CB0D3"/>
		<stop  offset="0.1397" style="stop-color:#3E80A9"/>
		<stop  offset="0.2472" style="stop-color:#335A88"/>
		<stop  offset="0.3462" style="stop-color:#2B3E70"/>
		<stop  offset="0.4335" style="stop-color:#262E61"/>
		<stop  offset="0.5" style="stop-color:#24285C"/>
		<stop  offset="0.5872" style="stop-color:#28295E"/>
		<stop  offset="0.6707" style="stop-color:#332D62"/>
		<stop  offset="0.7526" style="stop-color:#47326A"/>
		<stop  offset="0.8337" style="stop-color:#623A75"/>
		<stop  offset="0.914" style="stop-color:#854483"/>
		<stop  offset="0.9929" style="stop-color:#AF5194"/>
		<stop  offset="1" style="stop-color:#B35296"/>
	</linearGradient>
	<path class="st0" d="M261.9,158.2l-51.4-51.4l-23.9,23.9c-6.9,6.9-16,10.7-25.7,10.7s-18.9-3.8-25.7-10.7
		c-6.9-6.9-10.7-16-10.7-25.7s3.8-18.9,10.7-25.7l23.9-23.9L107.7,4L83.8,28c-42.5,42.5-42.5,111.7,0,154.2
		c21.3,21.3,49.2,31.9,77.1,31.9c27.9,0,55.8-10.6,77.1-31.9L261.9,158.2z"/>
	<linearGradient id="SVGID_2_" gradientUnits="userSpaceOnUse" x1="154.0944" y1="-45.0718" x2="362.782" y2="157.6221">
		<stop  offset="0" style="stop-color:#50BCDE"/>
		<stop  offset="2.641520e-02" style="stop-color:#4CB0D3"/>
		<stop  offset="0.1397" style="stop-color:#3E80A9"/>
		<stop  offset="0.2472" style="stop-color:#335A88"/>
		<stop  offset="0.3462" style="stop-color:#2B3E70"/>
		<stop  offset="0.4335" style="stop-color:#262E61"/>
		<stop  offset="0.5" style="stop-color:#24285C"/>
		<stop  offset="0.5872" style="stop-color:#28295E"/>
		<stop  offset="0.6707" style="stop-color:#332D62"/>
		<stop  offset="0.7526" style="stop-color:#47326A"/>
		<stop  offset="0.8337" style="stop-color:#623A75"/>
		<stop  offset="0.914" style="stop-color:#854483"/>
		<stop  offset="0.9929" style="stop-color:#AF5194"/>
		<stop  offset="1" style="stop-color:#B35296"/>
	</linearGradient>
	<path class="st1" d="M210.2,107.2l23.9-23.9c6.9-6.9,16-10.7,25.7-10.7s18.9,3.8,25.7,10.7c6.9,6.9,10.7,16,10.7,25.7
		s-3.8,18.9-10.7,25.7l-23.9,23.9L313,210l23.9-23.9c42.5-42.5,42.5-111.7,0-154.2s-111.7-42.5-154.2,0l-23.9,23.9L210.2,107.2z"/>
	<linearGradient id="SVGID_3_" gradientUnits="userSpaceOnUse" x1="-74.7855" y1="190.5761" x2="133.902" y2="393.27">
		<stop  offset="0" style="stop-color:#50BCDE"/>
		<stop  offset="2.641520e-02" style="stop-color:#4CB0D3"/>
		<stop  offset="0.1397" style="stop-color:#3E80A9"/>
		<stop  offset="0.2472" style="stop-color:#335A88"/>
		<stop  offset="0.3462" style="stop-color:#2B3E70"/>
		<stop  offset="0.4335" style="stop-color:#262E61"/>
		<stop  offset="0.5" style="stop-color:#24285C"/>
		<stop  offset="0.5872" style="stop-color:#28295E"/>
		<stop  offset="0.6707" style="stop-color:#332D62"/>
		<stop  offset="0.7526" style="stop-color:#47326A"/>
		<stop  offset="0.8337" style="stop-color:#623A75"/>
		<stop  offset="0.914" style="stop-color:#854483"/>
		<stop  offset="0.9929" style="stop-color:#AF5194"/>
		<stop  offset="1" style="stop-color:#B35296"/>
	</linearGradient>
	<path class="st2" d="M11.8,268.7c2.1-1.2,4.5-1.8,7.2-1.8c2.2,0,4.2,0.5,6.1,1.4c1.9,0.9,3.4,2.3,4.6,4.1l3.7-2.5
		c-1.4-2.4-3.4-4.2-5.9-5.4c-2.5-1.2-5.3-1.9-8.5-1.9c-3.6,0-6.9,0.8-9.8,2.4c-2.9,1.6-5.1,3.8-6.7,6.6c-1.6,2.8-2.4,6.1-2.4,9.6
		s0.8,6.8,2.4,9.7c1.6,2.9,3.9,5.1,6.7,6.7c2.9,1.6,6.1,2.4,9.8,2.4c3.1,0,5.9-0.6,8.5-1.9c2.5-1.2,4.5-3,5.9-5.4l-3.7-2.5
		c-1.2,1.8-2.8,3.2-4.6,4.1c-1.9,0.9-3.9,1.3-6.1,1.3c-2.7,0-5-0.6-7.2-1.8c-2.1-1.2-3.8-2.9-5-5S5,284.1,5,281.3
		c0-2.8,0.6-5.3,1.8-7.5S9.7,269.9,11.8,268.7z"/>
	<linearGradient id="SVGID_4_" gradientUnits="userSpaceOnUse" x1="-57.1748" y1="172.4446" x2="151.5127" y2="375.1385">
		<stop  offset="0" style="stop-color:#50BCDE"/>
		<stop  offset="2.641520e-02" style="stop-color:#4CB0D3"/>
		<stop  offset="0.1397" style="stop-color:#3E80A9"/>
		<stop  offset="0.2472" style="stop-color:#335A88"/>
		<stop  offset="0.3462" style="stop-color:#2B3E70"/>
		<stop  offset="0.4335" style="stop-color:#262E61"/>
		<stop  offset="0.5" style="stop-color:#24285C"/>
		<stop  offset="0.5872" style="stop-color:#28295E"/>
		<stop  offset="0.6707" style="stop-color:#332D62"/>
		<stop  offset="0.7526" style="stop-color:#47326A"/>
		<stop  offset="0.8337" style="stop-color:#623A75"/>
		<stop  offset="0.914" style="stop-color:#854483"/>
		<stop  offset="0.9929" style="stop-color:#AF5194"/>
		<stop  offset="1" style="stop-color:#B35296"/>
	</linearGradient>
	<path class="st3" d="M55.9,262.6c-2.9,0-5.6,0.4-8.2,1.3c-2.6,0.9-4.8,2.1-6.7,3.7l2.2,3.7c1.5-1.4,3.4-2.4,5.5-3.2
		c2.1-0.8,4.4-1.2,6.7-1.2c3.4,0,6,0.8,7.8,2.5c1.8,1.7,2.7,4.1,2.7,7.2v2.2H54.2c-4.9,0-8.5,1-10.8,2.9s-3.4,4.4-3.4,7.5
		c0,3.2,1.2,5.8,3.6,7.8c2.4,2,5.7,2.9,9.8,2.9c3,0,5.6-0.5,7.7-1.6s3.8-2.6,4.9-4.5v5.7h4.8v-22.8c0-4.7-1.3-8.3-3.8-10.7
		C64.4,263.8,60.7,262.6,55.9,262.6z M65.8,288.6c-1,2.4-2.5,4.3-4.5,5.6c-2,1.3-4.4,1.9-7.2,1.9c-2.9,0-5.2-0.6-6.9-1.9
		c-1.6-1.2-2.4-2.9-2.4-5.1c0-4.4,3.1-6.6,9.4-6.6h11.5V288.6z"/>
	<linearGradient id="SVGID_5_" gradientUnits="userSpaceOnUse" x1="-33.0104" y1="147.5657" x2="175.6772" y2="350.2596">
		<stop  offset="0" style="stop-color:#50BCDE"/>
		<stop  offset="2.641520e-02" style="stop-color:#4CB0D3"/>
		<stop  offset="0.1397" style="stop-color:#3E80A9"/>
		<stop  offset="0.2472" style="stop-color:#335A88"/>
		<stop  offset="0.3462" style="stop-color:#2B3E70"/>
		<stop  offset="0.4335" style="stop-color:#262E61"/>
		<stop  offset="0.5" style="stop-color:#24285C"/>
		<stop  offset="0.5872" style="stop-color:#28295E"/>
		<stop  offset="0.6707" style="stop-color:#332D62"/>
		<stop  offset="0.7526" style="stop-color:#47326A"/>
		<stop  offset="0.8337" style="stop-color:#623A75"/>
		<stop  offset="0.914" style="stop-color:#854483"/>
		<stop  offset="0.9929" style="stop-color:#AF5194"/>
		<stop  offset="1" style="stop-color:#B35296"/>
	</linearGradient>
	<path class="st4" d="M112.5,282.2c0,4.2-1.1,7.5-3.4,9.8c-2.2,2.4-5.3,3.5-9.2,3.5c-3.5,0-6.3-1-8.2-3c-1.9-2-2.9-4.9-2.9-8.8
		v-20.8h-5v21.3c0,5.2,1.4,9.1,4.2,11.8c2.8,2.7,6.6,4,11.4,4c2.9,0,5.5-0.6,7.8-1.9c2.3-1.2,4.1-3,5.4-5.2v6.7h4.8v-36.8h-5V282.2z
		"/>
	<linearGradient id="SVGID_6_" gradientUnits="userSpaceOnUse" x1="-14.5601" y1="128.5699" x2="194.1274" y2="331.2637">
		<stop  offset="0" style="stop-color:#50BCDE"/>
		<stop  offset="2.641520e-02" style="stop-color:#4CB0D3"/>
		<stop  offset="0.1397" style="stop-color:#3E80A9"/>
		<stop  offset="0.2472" style="stop-color:#335A88"/>
		<stop  offset="0.3462" style="stop-color:#2B3E70"/>
		<stop  offset="0.4335" style="stop-color:#262E61"/>
		<stop  offset="0.5" style="stop-color:#24285C"/>
		<stop  offset="0.5872" style="stop-color:#28295E"/>
		<stop  offset="0.6707" style="stop-color:#332D62"/>
		<stop  offset="0.7526" style="stop-color:#47326A"/>
		<stop  offset="0.8337" style="stop-color:#623A75"/>
		<stop  offset="0.914" style="stop-color:#854483"/>
		<stop  offset="0.9929" style="stop-color:#AF5194"/>
		<stop  offset="1" style="stop-color:#B35296"/>
	</linearGradient>
	<polygon class="st5" points="159.6,262.9 154.1,262.9 143.1,277.3 132,262.9 126.5,262.9 140.3,280.8 125.8,299.7 131.3,299.7 
		143.1,284.3 154.8,299.7 160.4,299.7 145.7,280.8 	"/>
	<linearGradient id="SVGID_7_" gradientUnits="userSpaceOnUse" x1="13.2372" y1="99.9506" x2="221.9247" y2="302.6445">
		<stop  offset="0" style="stop-color:#50BCDE"/>
		<stop  offset="2.641520e-02" style="stop-color:#4CB0D3"/>
		<stop  offset="0.1397" style="stop-color:#3E80A9"/>
		<stop  offset="0.2472" style="stop-color:#335A88"/>
		<stop  offset="0.3462" style="stop-color:#2B3E70"/>
		<stop  offset="0.4335" style="stop-color:#262E61"/>
		<stop  offset="0.5" style="stop-color:#24285C"/>
		<stop  offset="0.5872" style="stop-color:#28295E"/>
		<stop  offset="0.6707" style="stop-color:#332D62"/>
		<stop  offset="0.7526" style="stop-color:#47326A"/>
		<stop  offset="0.8337" style="stop-color:#623A75"/>
		<stop  offset="0.914" style="stop-color:#854483"/>
		<stop  offset="0.9929" style="stop-color:#AF5194"/>
		<stop  offset="1" style="stop-color:#B35296"/>
	</linearGradient>
	<path class="st6" d="M205.7,262.6c-3.2,0-6,0.6-8.4,1.9c-2.4,1.2-4.3,3-5.6,5.2v-6.8H187v36.8h5v-19.3c0-4.1,1.2-7.4,3.5-9.8
		c2.3-2.4,5.4-3.5,9.4-3.5c3.5,0,6.3,1,8.2,3c1.9,2,2.9,4.9,2.9,8.7v20.8h5v-21.3c0-5.1-1.4-9-4.1-11.7
		C214,264,210.3,262.6,205.7,262.6z"/>
	<linearGradient id="SVGID_8_" gradientUnits="userSpaceOnUse" x1="31.1294" y1="81.5293" x2="239.817" y2="284.2232">
		<stop  offset="0" style="stop-color:#50BCDE"/>
		<stop  offset="2.641520e-02" style="stop-color:#4CB0D3"/>
		<stop  offset="0.1397" style="stop-color:#3E80A9"/>
		<stop  offset="0.2472" style="stop-color:#335A88"/>
		<stop  offset="0.3462" style="stop-color:#2B3E70"/>
		<stop  offset="0.4335" style="stop-color:#262E61"/>
		<stop  offset="0.5" style="stop-color:#24285C"/>
		<stop  offset="0.5872" style="stop-color:#28295E"/>
		<stop  offset="0.6707" style="stop-color:#332D62"/>
		<stop  offset="0.7526" style="stop-color:#47326A"/>
		<stop  offset="0.8337" style="stop-color:#623A75"/>
		<stop  offset="0.914" style="stop-color:#854483"/>
		<stop  offset="0.9929" style="stop-color:#AF5194"/>
		<stop  offset="1" style="stop-color:#B35296"/>
	</linearGradient>
	<rect x="234.3" y="262.9" class="st7" width="5" height="36.8"/>
	<linearGradient id="SVGID_9_" gradientUnits="userSpaceOnUse" x1="46.1251" y1="66.0902" x2="254.8126" y2="268.7841">
		<stop  offset="0" style="stop-color:#50BCDE"/>
		<stop  offset="2.641520e-02" style="stop-color:#4CB0D3"/>
		<stop  offset="0.1397" style="stop-color:#3E80A9"/>
		<stop  offset="0.2472" style="stop-color:#335A88"/>
		<stop  offset="0.3462" style="stop-color:#2B3E70"/>
		<stop  offset="0.4335" style="stop-color:#262E61"/>
		<stop  offset="0.5" style="stop-color:#24285C"/>
		<stop  offset="0.5872" style="stop-color:#28295E"/>
		<stop  offset="0.6707" style="stop-color:#332D62"/>
		<stop  offset="0.7526" style="stop-color:#47326A"/>
		<stop  offset="0.8337" style="stop-color:#623A75"/>
		<stop  offset="0.914" style="stop-color:#854483"/>
		<stop  offset="0.9929" style="stop-color:#AF5194"/>
		<stop  offset="1" style="stop-color:#B35296"/>
	</linearGradient>
	<path class="st8" d="M236.8,247.8c-1,0-1.9,0.3-2.6,1c-0.7,0.7-1,1.5-1,2.4c0,1,0.3,1.8,1,2.5s1.6,1,2.6,1c1,0,1.9-0.3,2.6-1
		s1-1.6,1-2.6c0-0.9-0.3-1.7-1-2.4C238.7,248.1,237.8,247.8,236.8,247.8z"/>
	<linearGradient id="SVGID_10_" gradientUnits="userSpaceOnUse" x1="46.2851" y1="65.9254" x2="254.9727" y2="268.6193">
		<stop  offset="0" style="stop-color:#50BCDE"/>
		<stop  offset="2.641520e-02" style="stop-color:#4CB0D3"/>
		<stop  offset="0.1397" style="stop-color:#3E80A9"/>
		<stop  offset="0.2472" style="stop-color:#335A88"/>
		<stop  offset="0.3462" style="stop-color:#2B3E70"/>
		<stop  offset="0.4335" style="stop-color:#262E61"/>
		<stop  offset="0.5" style="stop-color:#24285C"/>
		<stop  offset="0.5872" style="stop-color:#28295E"/>
		<stop  offset="0.6707" style="stop-color:#332D62"/>
		<stop  offset="0.7526" style="stop-color:#47326A"/>
		<stop  offset="0.8337" style="stop-color:#623A75"/>
		<stop  offset="0.914" style="stop-color:#854483"/>
		<stop  offset="0.9929" style="stop-color:#AF5194"/>
		<stop  offset="1" style="stop-color:#B35296"/>
	</linearGradient>
	<path class="st9" d="M261.2,268.7c2.1-1.2,4.5-1.8,7.2-1.8c2.2,0,4.2,0.5,6.1,1.4c1.9,0.9,3.4,2.3,4.6,4.1l3.7-2.5
		c-1.4-2.4-3.4-4.2-5.9-5.4c-2.5-1.2-5.3-1.9-8.5-1.9c-3.6,0-6.9,0.8-9.8,2.4c-2.9,1.6-5.1,3.8-6.7,6.6c-1.6,2.8-2.4,6.1-2.4,9.6
		s0.8,6.8,2.4,9.7c1.6,2.9,3.9,5.1,6.7,6.7c2.9,1.6,6.1,2.4,9.8,2.4c3.1,0,5.9-0.6,8.5-1.9c2.5-1.2,4.5-3,5.9-5.4l-3.7-2.5
		c-1.2,1.8-2.8,3.2-4.6,4.1c-1.9,0.9-3.9,1.3-6.1,1.3c-2.7,0-5-0.6-7.2-1.8c-2.1-1.2-3.8-2.9-5-5s-1.8-4.7-1.8-7.5
		c0-2.8,0.6-5.3,1.8-7.5S259.1,269.9,261.2,268.7z"/>
	<linearGradient id="SVGID_11_" gradientUnits="userSpaceOnUse" x1="65.1425" y1="46.5105" x2="273.83" y2="249.2044">
		<stop  offset="0" style="stop-color:#50BCDE"/>
		<stop  offset="2.641520e-02" style="stop-color:#4CB0D3"/>
		<stop  offset="0.1397" style="stop-color:#3E80A9"/>
		<stop  offset="0.2472" style="stop-color:#335A88"/>
		<stop  offset="0.3462" style="stop-color:#2B3E70"/>
		<stop  offset="0.4335" style="stop-color:#262E61"/>
		<stop  offset="0.5" style="stop-color:#24285C"/>
		<stop  offset="0.5872" style="stop-color:#28295E"/>
		<stop  offset="0.6707" style="stop-color:#332D62"/>
		<stop  offset="0.7526" style="stop-color:#47326A"/>
		<stop  offset="0.8337" style="stop-color:#623A75"/>
		<stop  offset="0.914" style="stop-color:#854483"/>
		<stop  offset="0.9929" style="stop-color:#AF5194"/>
		<stop  offset="1" style="stop-color:#B35296"/>
	</linearGradient>
	<path class="st10" d="M316.4,265c-2.8-1.6-6-2.4-9.6-2.4c-3.5,0-6.7,0.8-9.6,2.4c-2.8,1.6-5.1,3.8-6.7,6.6
		c-1.6,2.8-2.4,6.1-2.4,9.6s0.8,6.8,2.4,9.6c1.6,2.8,3.9,5.1,6.7,6.7c2.8,1.6,6,2.4,9.6,2.4c3.5,0,6.7-0.8,9.6-2.4
		c2.8-1.6,5.1-3.8,6.7-6.7c1.6-2.8,2.4-6.1,2.4-9.6s-0.8-6.8-2.4-9.6C321.5,268.8,319.3,266.6,316.4,265z M318.8,288.8
		c-1.2,2.2-2.8,3.9-4.9,5.1c-2.1,1.2-4.4,1.8-7,1.8c-2.6,0-5-0.6-7-1.8c-2.1-1.2-3.7-2.9-4.9-5.1s-1.8-4.7-1.8-7.5
		c0-2.8,0.6-5.3,1.8-7.5s2.8-3.9,4.9-5.1c2.1-1.2,4.4-1.8,7-1.8c2.6,0,5,0.6,7,1.8c2.1,1.2,3.7,2.9,4.9,5.1c1.2,2.2,1.7,4.7,1.7,7.5
		C320.5,284.1,319.9,286.6,318.8,288.8z"/>
	<linearGradient id="SVGID_12_" gradientUnits="userSpaceOnUse" x1="84.1048" y1="26.9875" x2="292.7923" y2="229.6814">
		<stop  offset="0" style="stop-color:#50BCDE"/>
		<stop  offset="2.641520e-02" style="stop-color:#4CB0D3"/>
		<stop  offset="0.1397" style="stop-color:#3E80A9"/>
		<stop  offset="0.2472" style="stop-color:#335A88"/>
		<stop  offset="0.3462" style="stop-color:#2B3E70"/>
		<stop  offset="0.4335" style="stop-color:#262E61"/>
		<stop  offset="0.5" style="stop-color:#24285C"/>
		<stop  offset="0.5872" style="stop-color:#28295E"/>
		<stop  offset="0.6707" style="stop-color:#332D62"/>
		<stop  offset="0.7526" style="stop-color:#47326A"/>
		<stop  offset="0.8337" style="stop-color:#623A75"/>
		<stop  offset="0.914" style="stop-color:#854483"/>
		<stop  offset="0.9929" style="stop-color:#AF5194"/>
		<stop  offset="1" style="stop-color:#B35296"/>
	</linearGradient>
	<rect x="335.7" y="247.8" class="st11" width="5" height="51.9"/>
	<linearGradient id="SVGID_13_" gradientUnits="userSpaceOnUse" x1="93.9942" y1="16.8057" x2="302.6817" y2="219.4995">
		<stop  offset="0" style="stop-color:#50BCDE"/>
		<stop  offset="2.641520e-02" style="stop-color:#4CB0D3"/>
		<stop  offset="0.1397" style="stop-color:#3E80A9"/>
		<stop  offset="0.2472" style="stop-color:#335A88"/>
		<stop  offset="0.3462" style="stop-color:#2B3E70"/>
		<stop  offset="0.4335" style="stop-color:#262E61"/>
		<stop  offset="0.5" style="stop-color:#24285C"/>
		<stop  offset="0.5872" style="stop-color:#28295E"/>
		<stop  offset="0.6707" style="stop-color:#332D62"/>
		<stop  offset="0.7526" style="stop-color:#47326A"/>
		<stop  offset="0.8337" style="stop-color:#623A75"/>
		<stop  offset="0.914" style="stop-color:#854483"/>
		<stop  offset="0.9929" style="stop-color:#AF5194"/>
		<stop  offset="1" style="stop-color:#B35296"/>
	</linearGradient>
	<path class="st12" d="M367.3,262.6c-2.9,0-5.6,0.4-8.2,1.3c-2.6,0.9-4.8,2.1-6.7,3.7l2.2,3.7c1.5-1.4,3.4-2.4,5.5-3.2
		c2.1-0.8,4.4-1.2,6.7-1.2c3.4,0,6,0.8,7.8,2.5c1.8,1.7,2.7,4.1,2.7,7.2v2.2h-11.7c-4.9,0-8.5,1-10.8,2.9s-3.4,4.4-3.4,7.5
		c0,3.2,1.2,5.8,3.6,7.8c2.4,2,5.7,2.9,9.8,2.9c3,0,5.6-0.5,7.7-1.6s3.8-2.6,4.9-4.5v5.7h4.8v-22.8c0-4.7-1.3-8.3-3.8-10.7
		C375.8,263.8,372.1,262.6,367.3,262.6z M377.3,288.6c-1,2.4-2.5,4.3-4.5,5.6c-2,1.3-4.4,1.9-7.2,1.9c-2.9,0-5.2-0.6-6.9-1.9
		c-1.6-1.2-2.4-2.9-2.4-5.1c0-4.4,3.1-6.6,9.4-6.6h11.5V288.6z"/>
	<linearGradient id="SVGID_14_" gradientUnits="userSpaceOnUse" x1="113.0674" y1="-2.8316" x2="321.7549" y2="199.8623">
		<stop  offset="0" style="stop-color:#50BCDE"/>
		<stop  offset="2.641520e-02" style="stop-color:#4CB0D3"/>
		<stop  offset="0.1397" style="stop-color:#3E80A9"/>
		<stop  offset="0.2472" style="stop-color:#335A88"/>
		<stop  offset="0.3462" style="stop-color:#2B3E70"/>
		<stop  offset="0.4335" style="stop-color:#262E61"/>
		<stop  offset="0.5" style="stop-color:#24285C"/>
		<stop  offset="0.5872" style="stop-color:#28295E"/>
		<stop  offset="0.6707" style="stop-color:#332D62"/>
		<stop  offset="0.7526" style="stop-color:#47326A"/>
		<stop  offset="0.8337" style="stop-color:#623A75"/>
		<stop  offset="0.914" style="stop-color:#854483"/>
		<stop  offset="0.9929" style="stop-color:#AF5194"/>
		<stop  offset="1" style="stop-color:#B35296"/>
	</linearGradient>
	<path class="st13" d="M418.8,283.9c-1.3-1.4-2.8-2.3-4.5-2.9c-1.8-0.6-4.1-1.1-7.1-1.7c-2.4-0.4-4.2-0.8-5.6-1.2
		c-1.4-0.4-2.5-1-3.4-1.9c-0.9-0.8-1.4-2-1.4-3.4c0-1.8,0.8-3.3,2.4-4.4c1.6-1.1,4-1.7,7.2-1.7c4.2,0,7.8,1,10.8,3.1l2.2-4
		c-1.5-1-3.5-1.9-5.9-2.5c-2.4-0.6-4.8-0.9-7.1-0.9c-4.6,0-8.1,1-10.7,2.9c-2.6,2-3.8,4.5-3.8,7.5c0,2.5,0.6,4.4,1.9,5.8
		c1.3,1.4,2.8,2.4,4.6,3c1.8,0.6,4.2,1.2,7.2,1.7c2.2,0.4,4,0.8,5.4,1.2c1.4,0.4,2.5,1,3.4,1.7c0.9,0.8,1.3,1.8,1.3,3.2
		c0,1.9-0.8,3.4-2.4,4.4c-1.6,1-4.1,1.6-7.4,1.6c-2.5,0-4.9-0.4-7.3-1.2c-2.3-0.8-4.3-1.8-5.8-3l-2.2,3.9c1.5,1.3,3.7,2.4,6.4,3.3
		c2.7,0.9,5.6,1.3,8.6,1.3c4.8,0,8.5-0.9,11.1-2.8c2.7-1.9,4-4.4,4-7.7C420.7,287.2,420.1,285.3,418.8,283.9z"/>
</g>
</svg>
