<?xml version="1.0" encoding="utf-8"?>
<!-- Generator: Adobe Illustrator 24.0.1, SVG Export Plug-In . SVG Version: 6.00 Build 0)  -->
<svg version="1.1" id="Calque_1" xmlns="http://www.w3.org/2000/svg" xmlns:xlink="http://www.w3.org/1999/xlink" x="0px" y="0px"
	 viewBox="0 0 352.5 378.2" style="enable-background:new 0 0 352.5 378.2;" xml:space="preserve">
<style type="text/css">
	.st0{fill:url(#SVGID_1_);}
	.st1{fill:url(#SVGID_2_);}
	.st2{fill:url(#SVGID_3_);}
	.st3{fill:url(#SVGID_4_);}
	.st4{fill:url(#SVGID_5_);}
	.st5{fill:url(#SVGID_6_);}
	.st6{fill:url(#SVGID_7_);}
	.st7{fill:url(#SVGID_8_);}
	.st8{fill:url(#SVGID_9_);}
	.st9{fill:url(#SVGID_10_);}
	.st10{fill:url(#SVGID_11_);}
	.st11{fill:url(#SVGID_12_);}
</style>
<g>
	<g>
		
			<linearGradient id="SVGID_1_" gradientUnits="userSpaceOnUse" x1="-45.924" y1="-256.7459" x2="366.2051" y2="-494.6887" gradientTransform="matrix(1 0 0 -1 0 74)">
			<stop  offset="0" style="stop-color:#50BCDE"/>
			<stop  offset="2.641520e-02" style="stop-color:#4CB0D3"/>
			<stop  offset="0.1397" style="stop-color:#3E80A9"/>
			<stop  offset="0.2472" style="stop-color:#335A88"/>
			<stop  offset="0.3462" style="stop-color:#2B3E70"/>
			<stop  offset="0.4335" style="stop-color:#262E61"/>
			<stop  offset="0.5" style="stop-color:#24285C"/>
			<stop  offset="0.5872" style="stop-color:#28295E"/>
			<stop  offset="0.6707" style="stop-color:#332D62"/>
			<stop  offset="0.7526" style="stop-color:#47326A"/>
			<stop  offset="0.8337" style="stop-color:#623A75"/>
			<stop  offset="0.914" style="stop-color:#854483"/>
			<stop  offset="0.9929" style="stop-color:#AF5194"/>
			<stop  offset="1" style="stop-color:#B35296"/>
		</linearGradient>
		<path class="st0" d="M21.9,352.9c1.8,1.8,2.7,4.5,2.7,7.9v13.7h-7v-12.7c0-1.9-0.4-3.3-1.2-4.2c-0.8-1-2-1.4-3.6-1.4
			c-1.8,0-3.2,0.5-4.1,1.6c-1.1,1.1-1.6,2.6-1.6,4.9v11.9H0v-24h6.7v2.7c1-1.1,2-1.8,3.4-2.3s2.9-0.8,4.5-0.8
			C17.6,350.2,20.1,351.1,21.9,352.9z"/>
		
			<linearGradient id="SVGID_2_" gradientUnits="userSpaceOnUse" x1="-120.5227" y1="-189.6067" x2="626.9807" y2="-621.178" gradientTransform="matrix(1 0 0 -1 0 74)">
			<stop  offset="0" style="stop-color:#50BCDE"/>
			<stop  offset="2.641520e-02" style="stop-color:#4CB0D3"/>
			<stop  offset="0.1397" style="stop-color:#3E80A9"/>
			<stop  offset="0.2472" style="stop-color:#335A88"/>
			<stop  offset="0.3462" style="stop-color:#2B3E70"/>
			<stop  offset="0.4335" style="stop-color:#262E61"/>
			<stop  offset="0.5" style="stop-color:#24285C"/>
			<stop  offset="0.5872" style="stop-color:#28295E"/>
			<stop  offset="0.6707" style="stop-color:#332D62"/>
			<stop  offset="0.7526" style="stop-color:#47326A"/>
			<stop  offset="0.8337" style="stop-color:#623A75"/>
			<stop  offset="0.914" style="stop-color:#854483"/>
			<stop  offset="0.9929" style="stop-color:#AF5194"/>
			<stop  offset="1" style="stop-color:#B35296"/>
		</linearGradient>
		<path class="st1" d="M39.3,346.1c-0.8-0.7-1.2-1.7-1.2-2.7c0-1.1,0.4-2,1.2-2.7s1.8-1.1,3.1-1.1c1.2,0,2.3,0.3,3.1,1.1
			c0.8,0.7,1.2,1.6,1.2,2.6c0,1.2-0.4,2.2-1.2,2.9c-0.8,0.7-1.8,1.2-3.1,1.2C41.1,347.3,40,346.8,39.3,346.1z M39,350.6h7v24h-7
			V350.6z"/>
		
			<linearGradient id="SVGID_3_" gradientUnits="userSpaceOnUse" x1="-29.3192" y1="-230.1902" x2="312.4221" y2="-427.4947" gradientTransform="matrix(1 0 0 -1 0 74)">
			<stop  offset="0" style="stop-color:#50BCDE"/>
			<stop  offset="2.641520e-02" style="stop-color:#4CB0D3"/>
			<stop  offset="0.1397" style="stop-color:#3E80A9"/>
			<stop  offset="0.2472" style="stop-color:#335A88"/>
			<stop  offset="0.3462" style="stop-color:#2B3E70"/>
			<stop  offset="0.4335" style="stop-color:#262E61"/>
			<stop  offset="0.5" style="stop-color:#24285C"/>
			<stop  offset="0.5872" style="stop-color:#28295E"/>
			<stop  offset="0.6707" style="stop-color:#332D62"/>
			<stop  offset="0.7526" style="stop-color:#47326A"/>
			<stop  offset="0.8337" style="stop-color:#623A75"/>
			<stop  offset="0.914" style="stop-color:#854483"/>
			<stop  offset="0.9929" style="stop-color:#AF5194"/>
			<stop  offset="1" style="stop-color:#B35296"/>
		</linearGradient>
		<path class="st2" d="M65.1,373.4c-2-1.1-3.6-2.6-4.8-4.4s-1.7-4.1-1.7-6.4s0.5-4.5,1.7-6.4s2.7-3.3,4.8-4.4c2-1.1,4.4-1.6,6.9-1.6
			s4.8,0.5,6.6,1.6c1.9,1.1,3.3,2.6,4.1,4.5l-5.4,2.9c-1.2-2.2-3.1-3.3-5.4-3.3c-1.8,0-3.3,0.7-4.5,1.8c-1.2,1.2-1.8,2.7-1.8,4.9
			c0,2,0.7,3.7,1.8,4.9c1.2,1.2,2.6,1.8,4.5,1.8c2.3,0,4.1-1.1,5.4-3.3l5.4,3c-0.8,1.9-2.2,3.4-4.1,4.5s-4.1,1.6-6.6,1.6
			C69.5,375,67.2,374.5,65.1,373.4z"/>
		
			<linearGradient id="SVGID_4_" gradientUnits="userSpaceOnUse" x1="-19.3597" y1="-216.2814" x2="302.7713" y2="-402.2638" gradientTransform="matrix(1 0 0 -1 0 74)">
			<stop  offset="0" style="stop-color:#50BCDE"/>
			<stop  offset="2.641520e-02" style="stop-color:#4CB0D3"/>
			<stop  offset="0.1397" style="stop-color:#3E80A9"/>
			<stop  offset="0.2472" style="stop-color:#335A88"/>
			<stop  offset="0.3462" style="stop-color:#2B3E70"/>
			<stop  offset="0.4335" style="stop-color:#262E61"/>
			<stop  offset="0.5" style="stop-color:#24285C"/>
			<stop  offset="0.5872" style="stop-color:#28295E"/>
			<stop  offset="0.6707" style="stop-color:#332D62"/>
			<stop  offset="0.7526" style="stop-color:#47326A"/>
			<stop  offset="0.8337" style="stop-color:#623A75"/>
			<stop  offset="0.914" style="stop-color:#854483"/>
			<stop  offset="0.9929" style="stop-color:#AF5194"/>
			<stop  offset="1" style="stop-color:#B35296"/>
		</linearGradient>
		<path class="st3" d="M99.1,373.4c-2-1.1-3.6-2.6-4.7-4.4s-1.7-4.1-1.7-6.4s0.5-4.5,1.7-6.4s2.6-3.3,4.7-4.4c2-1.1,4.2-1.6,6.8-1.6
			s4.8,0.5,6.8,1.6s3.5,2.6,4.7,4.4s1.7,4.1,1.7,6.4s-0.5,4.5-1.7,6.4s-2.6,3.3-4.7,4.4c-2,1.1-4.2,1.6-6.8,1.6
			C103.4,375,101.2,374.5,99.1,373.4z M110.2,367.4c1.2-1.2,1.7-2.9,1.7-4.9s-0.5-3.6-1.7-4.9c-1.2-1.2-2.6-1.8-4.4-1.8
			s-3.3,0.7-4.5,1.8c-1.2,1.2-1.7,2.9-1.7,4.9s0.5,3.6,1.7,4.9c1.2,1.2,2.6,1.8,4.5,1.8C107.7,369.3,109.1,368.6,110.2,367.4z"/>
		
			<linearGradient id="SVGID_5_" gradientUnits="userSpaceOnUse" x1="-236.0713" y1="-69.7887" x2="560.0764" y2="-529.4447" gradientTransform="matrix(1 0 0 -1 0 74)">
			<stop  offset="0" style="stop-color:#50BCDE"/>
			<stop  offset="2.641520e-02" style="stop-color:#4CB0D3"/>
			<stop  offset="0.1397" style="stop-color:#3E80A9"/>
			<stop  offset="0.2472" style="stop-color:#335A88"/>
			<stop  offset="0.3462" style="stop-color:#2B3E70"/>
			<stop  offset="0.4335" style="stop-color:#262E61"/>
			<stop  offset="0.5" style="stop-color:#24285C"/>
			<stop  offset="0.5872" style="stop-color:#28295E"/>
			<stop  offset="0.6707" style="stop-color:#332D62"/>
			<stop  offset="0.7526" style="stop-color:#47326A"/>
			<stop  offset="0.8337" style="stop-color:#623A75"/>
			<stop  offset="0.914" style="stop-color:#854483"/>
			<stop  offset="0.9929" style="stop-color:#AF5194"/>
			<stop  offset="1" style="stop-color:#B35296"/>
		</linearGradient>
		<path class="st4" d="M131.8,341.6h7v33.2h-7V341.6z"/>
		
			<linearGradient id="SVGID_6_" gradientUnits="userSpaceOnUse" x1="-60.1257" y1="-160.1161" x2="352.4952" y2="-398.3429" gradientTransform="matrix(1 0 0 -1 0 74)">
			<stop  offset="0" style="stop-color:#50BCDE"/>
			<stop  offset="2.641520e-02" style="stop-color:#4CB0D3"/>
			<stop  offset="0.1397" style="stop-color:#3E80A9"/>
			<stop  offset="0.2472" style="stop-color:#335A88"/>
			<stop  offset="0.3462" style="stop-color:#2B3E70"/>
			<stop  offset="0.4335" style="stop-color:#262E61"/>
			<stop  offset="0.5" style="stop-color:#24285C"/>
			<stop  offset="0.5872" style="stop-color:#28295E"/>
			<stop  offset="0.6707" style="stop-color:#332D62"/>
			<stop  offset="0.7526" style="stop-color:#47326A"/>
			<stop  offset="0.8337" style="stop-color:#623A75"/>
			<stop  offset="0.914" style="stop-color:#854483"/>
			<stop  offset="0.9929" style="stop-color:#AF5194"/>
			<stop  offset="1" style="stop-color:#B35296"/>
		</linearGradient>
		<path class="st5" d="M171.5,352.9c2,1.8,3,4.5,3,7.9v13.7H168v-3c-1.2,2.2-3.7,3.4-7.4,3.4c-1.8,0-3.4-0.3-4.8-1
			c-1.4-0.7-2.3-1.5-3.1-2.6c-0.7-1.1-1.1-2.3-1.1-3.7c0-2.2,0.8-4.1,2.6-5.3c1.7-1.2,4.2-1.9,7.8-1.9h5.5c0-1.5-0.4-2.6-1.4-3.5
			c-1-0.8-2.3-1.2-4.1-1.2c-1.2,0-2.6,0.2-3.7,0.7c-1.2,0.4-2.2,1-3.2,1.6l-2.6-4.9c1.2-1,2.9-1.6,4.7-2.2c1.8-0.5,3.7-0.7,5.6-0.7
			C166.6,350.2,169.4,351.1,171.5,352.9z M165.5,369.5c1-0.5,1.6-1.4,1.9-2.5v-2.5h-4.8c-2.9,0-4.2,1-4.2,2.7c0,0.8,0.3,1.6,1.1,2.2
			c0.7,0.5,1.7,0.7,2.9,0.7C163.5,370.3,164.5,370,165.5,369.5z"/>
		
			<linearGradient id="SVGID_7_" gradientUnits="userSpaceOnUse" x1="-36.1494" y1="-153.8404" x2="332.817" y2="-366.8633" gradientTransform="matrix(1 0 0 -1 0 74)">
			<stop  offset="0" style="stop-color:#50BCDE"/>
			<stop  offset="2.641520e-02" style="stop-color:#4CB0D3"/>
			<stop  offset="0.1397" style="stop-color:#3E80A9"/>
			<stop  offset="0.2472" style="stop-color:#335A88"/>
			<stop  offset="0.3462" style="stop-color:#2B3E70"/>
			<stop  offset="0.4335" style="stop-color:#262E61"/>
			<stop  offset="0.5" style="stop-color:#24285C"/>
			<stop  offset="0.5872" style="stop-color:#28295E"/>
			<stop  offset="0.6707" style="stop-color:#332D62"/>
			<stop  offset="0.7526" style="stop-color:#47326A"/>
			<stop  offset="0.8337" style="stop-color:#623A75"/>
			<stop  offset="0.914" style="stop-color:#854483"/>
			<stop  offset="0.9929" style="stop-color:#AF5194"/>
			<stop  offset="1" style="stop-color:#B35296"/>
		</linearGradient>
		<path class="st6" d="M191,374.2c-1.9-0.5-3.4-1.1-4.5-1.8l2.3-5c1.1,0.7,2.3,1.2,3.8,1.7c1.5,0.4,3,0.7,4.5,0.7
			c3,0,4.5-0.7,4.5-2.2c0-0.7-0.4-1.2-1.2-1.5s-2-0.5-3.7-0.7c-2-0.3-3.6-0.7-4.9-1.1s-2.3-1.1-3.3-2c-1-1-1.4-2.3-1.4-4.1
			c0-1.5,0.4-2.9,1.2-4.1s2.2-2.2,3.8-2.7c1.7-0.7,3.7-1,6-1c1.7,0,3.4,0.2,5.1,0.5c1.7,0.3,3.1,0.8,4.1,1.5l-2.3,5
			c-2.2-1.2-4.5-1.8-6.9-1.8c-1.5,0-2.6,0.2-3.3,0.7c-0.7,0.4-1.2,1-1.2,1.6c0,0.7,0.4,1.2,1.2,1.6c0.8,0.3,2.2,0.5,3.8,0.8
			c2,0.3,3.6,0.7,4.8,1.1s2.3,1.1,3.3,2c1,1,1.4,2.3,1.4,4.1c0,1.5-0.4,2.7-1.4,4c-1,1.2-2.2,2-4,2.6s-3.7,1-6,1
			C194.8,375,192.9,374.7,191,374.2z"/>
		
			<linearGradient id="SVGID_8_" gradientUnits="userSpaceOnUse" x1="-15.0658" y1="-145.9855" x2="326.6756" y2="-343.2899" gradientTransform="matrix(1 0 0 -1 0 74)">
			<stop  offset="0" style="stop-color:#50BCDE"/>
			<stop  offset="2.641520e-02" style="stop-color:#4CB0D3"/>
			<stop  offset="0.1397" style="stop-color:#3E80A9"/>
			<stop  offset="0.2472" style="stop-color:#335A88"/>
			<stop  offset="0.3462" style="stop-color:#2B3E70"/>
			<stop  offset="0.4335" style="stop-color:#262E61"/>
			<stop  offset="0.5" style="stop-color:#24285C"/>
			<stop  offset="0.5872" style="stop-color:#28295E"/>
			<stop  offset="0.6707" style="stop-color:#332D62"/>
			<stop  offset="0.7526" style="stop-color:#47326A"/>
			<stop  offset="0.8337" style="stop-color:#623A75"/>
			<stop  offset="0.914" style="stop-color:#854483"/>
			<stop  offset="0.9929" style="stop-color:#AF5194"/>
			<stop  offset="1" style="stop-color:#B35296"/>
		</linearGradient>
		<path class="st7" d="M225.2,373.4c-2-1.1-3.6-2.6-4.8-4.4s-1.7-4.1-1.7-6.4s0.5-4.5,1.7-6.4s2.7-3.3,4.8-4.4
			c2-1.1,4.4-1.6,6.9-1.6c2.6,0,4.8,0.5,6.6,1.6c1.9,1.1,3.3,2.6,4.1,4.5l-5.4,2.9c-1.2-2.2-3.1-3.3-5.4-3.3c-1.8,0-3.3,0.7-4.5,1.8
			c-1.2,1.2-1.8,2.7-1.8,4.9c0,2,0.7,3.7,1.8,4.9s2.6,1.8,4.5,1.8c2.3,0,4.1-1.1,5.4-3.3l5.4,3c-0.8,1.9-2.2,3.4-4.1,4.5
			s-4.1,1.6-6.6,1.6C229.5,375,227.2,374.5,225.2,373.4z"/>
		
			<linearGradient id="SVGID_9_" gradientUnits="userSpaceOnUse" x1="-70.6786" y1="-95.3529" x2="342.4072" y2="-333.8481" gradientTransform="matrix(1 0 0 -1 0 74)">
			<stop  offset="0" style="stop-color:#50BCDE"/>
			<stop  offset="2.641520e-02" style="stop-color:#4CB0D3"/>
			<stop  offset="0.1397" style="stop-color:#3E80A9"/>
			<stop  offset="0.2472" style="stop-color:#335A88"/>
			<stop  offset="0.3462" style="stop-color:#2B3E70"/>
			<stop  offset="0.4335" style="stop-color:#262E61"/>
			<stop  offset="0.5" style="stop-color:#24285C"/>
			<stop  offset="0.5872" style="stop-color:#28295E"/>
			<stop  offset="0.6707" style="stop-color:#332D62"/>
			<stop  offset="0.7526" style="stop-color:#47326A"/>
			<stop  offset="0.8337" style="stop-color:#623A75"/>
			<stop  offset="0.914" style="stop-color:#854483"/>
			<stop  offset="0.9929" style="stop-color:#AF5194"/>
			<stop  offset="1" style="stop-color:#B35296"/>
		</linearGradient>
		<path class="st8" d="M273.1,352.9c2,1.8,3,4.5,3,7.9v13.7h-6.5v-3c-1.2,2.2-3.7,3.4-7.4,3.4c-1.8,0-3.4-0.3-4.8-1
			s-2.3-1.5-3.1-2.6c-0.7-1.1-1.1-2.3-1.1-3.7c0-2.2,0.8-4.1,2.6-5.3c1.7-1.2,4.2-1.9,7.8-1.9h5.5c0-1.5-0.4-2.6-1.4-3.5
			c-1-0.8-2.3-1.2-4.1-1.2c-1.2,0-2.6,0.2-3.7,0.7c-1.2,0.4-2.2,1-3.2,1.6l-2.6-4.9c1.2-1,2.9-1.6,4.7-2.2c1.8-0.5,3.7-0.7,5.6-0.7
			C268.2,350.2,271.1,351.1,273.1,352.9z M267.1,369.5c1-0.5,1.6-1.4,1.9-2.5v-2.5h-4.7c-2.9,0-4.2,1-4.2,2.7c0,0.8,0.3,1.6,1.1,2.2
			c0.7,0.6,1.7,0.7,2.9,0.7C265.2,370.3,266.3,370,267.1,369.5z"/>
		
			<linearGradient id="SVGID_10_" gradientUnits="userSpaceOnUse" x1="-75.6699" y1="-68.366" x2="339.4173" y2="-308.0166" gradientTransform="matrix(1 0 0 -1 0 74)">
			<stop  offset="0" style="stop-color:#50BCDE"/>
			<stop  offset="2.641520e-02" style="stop-color:#4CB0D3"/>
			<stop  offset="0.1397" style="stop-color:#3E80A9"/>
			<stop  offset="0.2472" style="stop-color:#335A88"/>
			<stop  offset="0.3462" style="stop-color:#2B3E70"/>
			<stop  offset="0.4335" style="stop-color:#262E61"/>
			<stop  offset="0.5" style="stop-color:#24285C"/>
			<stop  offset="0.5872" style="stop-color:#28295E"/>
			<stop  offset="0.6707" style="stop-color:#332D62"/>
			<stop  offset="0.7526" style="stop-color:#47326A"/>
			<stop  offset="0.8337" style="stop-color:#623A75"/>
			<stop  offset="0.914" style="stop-color:#854483"/>
			<stop  offset="0.9929" style="stop-color:#AF5194"/>
			<stop  offset="1" style="stop-color:#B35296"/>
		</linearGradient>
		<path class="st9" d="M314.6,350.6v24H308v-2.9c-1,1.1-2,1.8-3.3,2.3s-2.6,0.8-4.1,0.8c-3.2,0-5.6-1-7.5-2.7
			c-1.8-1.8-2.7-4.5-2.7-8.1v-13.6h7V363c0,3.8,1.6,5.9,4.9,5.9c1.7,0,3-0.5,4.1-1.6c1-1.1,1.5-2.6,1.5-4.9v-11.9L314.6,350.6
			L314.6,350.6L314.6,350.6z"/>
		
			<linearGradient id="SVGID_11_" gradientUnits="userSpaceOnUse" x1="-71.5632" y1="-51.4458" x2="334.695" y2="-285.999" gradientTransform="matrix(1 0 0 -1 0 74)">
			<stop  offset="0" style="stop-color:#50BCDE"/>
			<stop  offset="2.641520e-02" style="stop-color:#4CB0D3"/>
			<stop  offset="0.1397" style="stop-color:#3E80A9"/>
			<stop  offset="0.2472" style="stop-color:#335A88"/>
			<stop  offset="0.3462" style="stop-color:#2B3E70"/>
			<stop  offset="0.4335" style="stop-color:#262E61"/>
			<stop  offset="0.5" style="stop-color:#24285C"/>
			<stop  offset="0.5872" style="stop-color:#28295E"/>
			<stop  offset="0.6707" style="stop-color:#332D62"/>
			<stop  offset="0.7526" style="stop-color:#47326A"/>
			<stop  offset="0.8337" style="stop-color:#623A75"/>
			<stop  offset="0.914" style="stop-color:#854483"/>
			<stop  offset="0.9929" style="stop-color:#AF5194"/>
			<stop  offset="1" style="stop-color:#B35296"/>
		</linearGradient>
		<path class="st10" d="M344.4,374.6l-5.3-7.4l-5.4,7.4h-7.5l9.3-12.1l-8.9-11.9h7.9l5.1,7l5.2-7h7.4l-8.9,11.7l9.3,12.3H344.4z"/>
	</g>
</g>
<linearGradient id="SVGID_12_" gradientUnits="userSpaceOnUse" x1="-0.5" y1="148.2228" x2="352.5" y2="148.2228">
	<stop  offset="0" style="stop-color:#50BCDE"/>
	<stop  offset="2.641520e-02" style="stop-color:#4CB0D3"/>
	<stop  offset="0.1397" style="stop-color:#3E80A9"/>
	<stop  offset="0.2472" style="stop-color:#335A88"/>
	<stop  offset="0.3462" style="stop-color:#2B3E70"/>
	<stop  offset="0.4335" style="stop-color:#262E61"/>
	<stop  offset="0.5" style="stop-color:#24285C"/>
	<stop  offset="0.5872" style="stop-color:#28295E"/>
	<stop  offset="0.6707" style="stop-color:#332D62"/>
	<stop  offset="0.7526" style="stop-color:#47326A"/>
	<stop  offset="0.8337" style="stop-color:#623A75"/>
	<stop  offset="0.914" style="stop-color:#854483"/>
	<stop  offset="0.9929" style="stop-color:#AF5194"/>
	<stop  offset="1" style="stop-color:#B35296"/>
</linearGradient>
<path class="st11" d="M333.3,3.9L208.5,55.5c-20.8,8.6-44.2,8.6-65.1,0L21,4.9C10.8,0.6-0.5,8.2-0.5,19.3v192.3
	c0,9.5,5.7,18,14.4,21.6l35.8,14.8c6.7,2.8,14.1-2.2,14.1-9.4V103.8L91,115.1c12.5,5.2,20.7,17.4,20.7,30.9v114.7
	c0,7.8,4.7,14.8,11.9,17.8l21.9,9c19.5,8.1,41.5,8.1,61,0l131.4-54.3c8.8-3.6,14.6-12.2,14.6-21.8v-53.8c0-8.7-8.9-14.5-16.8-11.1
	l-98.9,42.2l-0.3-31.8c-0.1-13.9,8.1-26.5,20.9-31.9l81.2-34.6c8.5-3.6,14-12,14-21.2V16.8C352.5,6.9,342.4,0.1,333.3,3.9z"/>
</svg>
