<?xml version="1.0" encoding="utf-8"?>
<!-- Generator: Adobe Illustrator 24.0.1, SVG Export Plug-In . SVG Version: 6.00 Build 0)  -->
<svg version="1.1" id="Calque_1" xmlns="http://www.w3.org/2000/svg" xmlns:xlink="http://www.w3.org/1999/xlink" x="0px" y="0px"
	 viewBox="0 0 426 304.1" style="enable-background:new 0 0 426 304.1;" xml:space="preserve">
<style type="text/css">
	.st0{fill:url(#SVGID_1_);}
	.st1{fill:url(#SVGID_2_);}
	.st2{fill:url(#SVGID_3_);}
	.st3{fill:url(#SVGID_4_);}
	.st4{fill:url(#SVGID_5_);}
	.st5{fill:url(#SVGID_6_);}
	.st6{fill:url(#SVGID_7_);}
	.st7{fill:url(#SVGID_8_);}
	.st8{fill:url(#SVGID_9_);}
	.st9{fill:url(#SVGID_10_);}
	.st10{fill:url(#SVGID_11_);}
	.st11{fill:url(#SVGID_12_);}
	.st12{fill:url(#SVGID_13_);}
	.st13{fill:url(#SVGID_14_);}
</style>
<g>
	<g>
		
			<linearGradient id="SVGID_1_" gradientUnits="userSpaceOnUse" x1="22.259" y1="240.8353" x2="340.3606" y2="74.4674" gradientTransform="matrix(1 0 0 -1 0 306)">
			<stop  offset="0" style="stop-color:#50BCDE"/>
			<stop  offset="2.641520e-02" style="stop-color:#4CB0D3"/>
			<stop  offset="0.1397" style="stop-color:#3E80A9"/>
			<stop  offset="0.2472" style="stop-color:#335A88"/>
			<stop  offset="0.3462" style="stop-color:#2B3E70"/>
			<stop  offset="0.4335" style="stop-color:#262E61"/>
			<stop  offset="0.5" style="stop-color:#24285C"/>
			<stop  offset="0.5872" style="stop-color:#28295E"/>
			<stop  offset="0.6707" style="stop-color:#332D62"/>
			<stop  offset="0.7526" style="stop-color:#47326A"/>
			<stop  offset="0.8337" style="stop-color:#623A75"/>
			<stop  offset="0.914" style="stop-color:#854483"/>
			<stop  offset="0.9929" style="stop-color:#AF5194"/>
			<stop  offset="1" style="stop-color:#B35296"/>
		</linearGradient>
		<polygon class="st0" points="96.3,39.6 46.3,39.6 46.3,89.7 46.3,199.4 103.5,199.4 103.5,96.9 148.7,96.9 148.7,199.4 206,199.4 
			206,89.7 206,39.6 155.9,39.6 		"/>
		
			<linearGradient id="SVGID_2_" gradientUnits="userSpaceOnUse" x1="59.5667" y1="312.1687" x2="377.6682" y2="145.8009" gradientTransform="matrix(1 0 0 -1 0 306)">
			<stop  offset="0" style="stop-color:#50BCDE"/>
			<stop  offset="2.641520e-02" style="stop-color:#4CB0D3"/>
			<stop  offset="0.1397" style="stop-color:#3E80A9"/>
			<stop  offset="0.2472" style="stop-color:#335A88"/>
			<stop  offset="0.3462" style="stop-color:#2B3E70"/>
			<stop  offset="0.4335" style="stop-color:#262E61"/>
			<stop  offset="0.5" style="stop-color:#24285C"/>
			<stop  offset="0.5872" style="stop-color:#28295E"/>
			<stop  offset="0.6707" style="stop-color:#332D62"/>
			<stop  offset="0.7526" style="stop-color:#47326A"/>
			<stop  offset="0.8337" style="stop-color:#623A75"/>
			<stop  offset="0.914" style="stop-color:#854483"/>
			<stop  offset="0.9929" style="stop-color:#AF5194"/>
			<stop  offset="1" style="stop-color:#B35296"/>
		</linearGradient>
		<polygon class="st1" points="379.7,96.9 379.7,39.6 270.1,39.6 220,39.6 220,89.7 220,149.3 220,199.4 270.1,199.4 379.7,199.4 
			379.7,142.1 277.3,142.1 277.3,96.9 		"/>
	</g>
	<g>
		
			<linearGradient id="SVGID_3_" gradientUnits="userSpaceOnUse" x1="-133.9206" y1="92.7287" x2="268.8046" y2="-117.8976" gradientTransform="matrix(1 0 0 -1 0 306)">
			<stop  offset="0" style="stop-color:#50BCDE"/>
			<stop  offset="2.641520e-02" style="stop-color:#4CB0D3"/>
			<stop  offset="0.1397" style="stop-color:#3E80A9"/>
			<stop  offset="0.2472" style="stop-color:#335A88"/>
			<stop  offset="0.3462" style="stop-color:#2B3E70"/>
			<stop  offset="0.4335" style="stop-color:#262E61"/>
			<stop  offset="0.5" style="stop-color:#24285C"/>
			<stop  offset="0.5872" style="stop-color:#28295E"/>
			<stop  offset="0.6707" style="stop-color:#332D62"/>
			<stop  offset="0.7526" style="stop-color:#47326A"/>
			<stop  offset="0.8337" style="stop-color:#623A75"/>
			<stop  offset="0.914" style="stop-color:#854483"/>
			<stop  offset="0.9929" style="stop-color:#AF5194"/>
			<stop  offset="1" style="stop-color:#B35296"/>
		</linearGradient>
		<path class="st2" d="M26.5,277.3c2.2,2.2,3.3,5.4,3.3,9.6v16.6h-8.5v-15.3c0-2.3-0.5-4-1.5-5.1c-1-1.2-2.4-1.7-4.4-1.7
			c-2.2,0-3.9,0.6-5,1.9c-1.3,1.3-1.9,3.2-1.9,5.9v14.4H0v-29h8.1v3.3c1.2-1.3,2.4-2.2,4.1-2.8s3.5-1,5.4-1
			C21.3,274.1,24.3,275.1,26.5,277.3z"/>
		
			<linearGradient id="SVGID_4_" gradientUnits="userSpaceOnUse" x1="-122.7791" y1="114.0318" x2="279.9463" y2="-96.5944" gradientTransform="matrix(1 0 0 -1 0 306)">
			<stop  offset="0" style="stop-color:#50BCDE"/>
			<stop  offset="2.641520e-02" style="stop-color:#4CB0D3"/>
			<stop  offset="0.1397" style="stop-color:#3E80A9"/>
			<stop  offset="0.2472" style="stop-color:#335A88"/>
			<stop  offset="0.3462" style="stop-color:#2B3E70"/>
			<stop  offset="0.4335" style="stop-color:#262E61"/>
			<stop  offset="0.5" style="stop-color:#24285C"/>
			<stop  offset="0.5872" style="stop-color:#28295E"/>
			<stop  offset="0.6707" style="stop-color:#332D62"/>
			<stop  offset="0.7526" style="stop-color:#47326A"/>
			<stop  offset="0.8337" style="stop-color:#623A75"/>
			<stop  offset="0.914" style="stop-color:#854483"/>
			<stop  offset="0.9929" style="stop-color:#AF5194"/>
			<stop  offset="1" style="stop-color:#B35296"/>
		</linearGradient>
		<path class="st3" d="M47.5,269.1c-1-0.9-1.4-2.1-1.4-3.3c0-1.3,0.5-2.4,1.4-3.3c1-0.9,2.2-1.3,3.7-1.3c1.5,0,2.8,0.4,3.7,1.3
			c1,0.9,1.4,1.9,1.4,3.2c0,1.4-0.5,2.6-1.4,3.5c-1,0.9-2.2,1.4-3.7,1.4C49.7,270.5,48.4,270,47.5,269.1z M47.1,274.5h8.5v29h-8.5
			V274.5z"/>
		
			<linearGradient id="SVGID_5_" gradientUnits="userSpaceOnUse" x1="-117.6519" y1="123.835" x2="285.0732" y2="-86.7913" gradientTransform="matrix(1 0 0 -1 0 306)">
			<stop  offset="0" style="stop-color:#50BCDE"/>
			<stop  offset="2.641520e-02" style="stop-color:#4CB0D3"/>
			<stop  offset="0.1397" style="stop-color:#3E80A9"/>
			<stop  offset="0.2472" style="stop-color:#335A88"/>
			<stop  offset="0.3462" style="stop-color:#2B3E70"/>
			<stop  offset="0.4335" style="stop-color:#262E61"/>
			<stop  offset="0.5" style="stop-color:#24285C"/>
			<stop  offset="0.5872" style="stop-color:#28295E"/>
			<stop  offset="0.6707" style="stop-color:#332D62"/>
			<stop  offset="0.7526" style="stop-color:#47326A"/>
			<stop  offset="0.8337" style="stop-color:#623A75"/>
			<stop  offset="0.914" style="stop-color:#854483"/>
			<stop  offset="0.9929" style="stop-color:#AF5194"/>
			<stop  offset="1" style="stop-color:#B35296"/>
		</linearGradient>
		<path class="st4" d="M78.7,302.1c-2.4-1.3-4.4-3.1-5.8-5.3s-2.1-4.9-2.1-7.7c0-2.8,0.6-5.4,2.1-7.7s3.3-4,5.8-5.3
			c2.4-1.3,5.3-1.9,8.3-1.9s5.8,0.6,8,1.9c2.3,1.3,4,3.1,5,5.5l-6.5,3.5c-1.5-2.7-3.7-4-6.5-4c-2.2,0-4,0.8-5.4,2.2
			c-1.4,1.4-2.2,3.3-2.2,5.9c0,2.4,0.8,4.5,2.2,5.9c1.4,1.4,3.2,2.2,5.4,2.2c2.8,0,5-1.3,6.5-4l6.5,3.6c-1,2.3-2.7,4.1-5,5.4
			c-2.3,1.3-5,1.9-8,1.9C84,304,81.2,303.4,78.7,302.1z"/>
		
			<linearGradient id="SVGID_6_" gradientUnits="userSpaceOnUse" x1="-108.8146" y1="140.7323" x2="293.9106" y2="-69.894" gradientTransform="matrix(1 0 0 -1 0 306)">
			<stop  offset="0" style="stop-color:#50BCDE"/>
			<stop  offset="2.641520e-02" style="stop-color:#4CB0D3"/>
			<stop  offset="0.1397" style="stop-color:#3E80A9"/>
			<stop  offset="0.2472" style="stop-color:#335A88"/>
			<stop  offset="0.3462" style="stop-color:#2B3E70"/>
			<stop  offset="0.4335" style="stop-color:#262E61"/>
			<stop  offset="0.5" style="stop-color:#24285C"/>
			<stop  offset="0.5872" style="stop-color:#28295E"/>
			<stop  offset="0.6707" style="stop-color:#332D62"/>
			<stop  offset="0.7526" style="stop-color:#47326A"/>
			<stop  offset="0.8337" style="stop-color:#623A75"/>
			<stop  offset="0.914" style="stop-color:#854483"/>
			<stop  offset="0.9929" style="stop-color:#AF5194"/>
			<stop  offset="1" style="stop-color:#B35296"/>
		</linearGradient>
		<path class="st5" d="M119.8,302.1c-2.4-1.3-4.4-3.1-5.7-5.3s-2.1-4.9-2.1-7.7c0-2.8,0.6-5.4,2.1-7.7s3.2-4,5.7-5.3
			c2.4-1.3,5.1-1.9,8.2-1.9c3.1,0,5.8,0.6,8.2,1.9c2.4,1.3,4.2,3.1,5.7,5.3c1.4,2.2,2.1,4.9,2.1,7.7c0,2.8-0.6,5.4-2.1,7.7
			c-1.4,2.3-3.2,4-5.7,5.3c-2.4,1.3-5.1,1.9-8.2,1.9C125,304,122.3,303.4,119.8,302.1z M133.3,294.9c1.4-1.4,2.1-3.5,2.1-5.9
			s-0.6-4.4-2.1-5.9c-1.4-1.4-3.1-2.2-5.3-2.2c-2.2,0-4,0.8-5.4,2.2c-1.4,1.4-2.1,3.5-2.1,5.9s0.6,4.4,2.1,5.9
			c1.4,1.4,3.2,2.2,5.4,2.2C130.2,297.1,131.9,296.3,133.3,294.9z"/>
		
			<linearGradient id="SVGID_7_" gradientUnits="userSpaceOnUse" x1="-98.9334" y1="159.6255" x2="303.7917" y2="-51.0008" gradientTransform="matrix(1 0 0 -1 0 306)">
			<stop  offset="0" style="stop-color:#50BCDE"/>
			<stop  offset="2.641520e-02" style="stop-color:#4CB0D3"/>
			<stop  offset="0.1397" style="stop-color:#3E80A9"/>
			<stop  offset="0.2472" style="stop-color:#335A88"/>
			<stop  offset="0.3462" style="stop-color:#2B3E70"/>
			<stop  offset="0.4335" style="stop-color:#262E61"/>
			<stop  offset="0.5" style="stop-color:#24285C"/>
			<stop  offset="0.5872" style="stop-color:#28295E"/>
			<stop  offset="0.6707" style="stop-color:#332D62"/>
			<stop  offset="0.7526" style="stop-color:#47326A"/>
			<stop  offset="0.8337" style="stop-color:#623A75"/>
			<stop  offset="0.914" style="stop-color:#854483"/>
			<stop  offset="0.9929" style="stop-color:#AF5194"/>
			<stop  offset="1" style="stop-color:#B35296"/>
		</linearGradient>
		<path class="st6" d="M159.3,263.6h8.5v40.1h-8.5V263.6z"/>
		
			<linearGradient id="SVGID_8_" gradientUnits="userSpaceOnUse" x1="-94.1458" y1="168.7795" x2="308.5793" y2="-41.8468" gradientTransform="matrix(1 0 0 -1 0 306)">
			<stop  offset="0" style="stop-color:#50BCDE"/>
			<stop  offset="2.641520e-02" style="stop-color:#4CB0D3"/>
			<stop  offset="0.1397" style="stop-color:#3E80A9"/>
			<stop  offset="0.2472" style="stop-color:#335A88"/>
			<stop  offset="0.3462" style="stop-color:#2B3E70"/>
			<stop  offset="0.4335" style="stop-color:#262E61"/>
			<stop  offset="0.5" style="stop-color:#24285C"/>
			<stop  offset="0.5872" style="stop-color:#28295E"/>
			<stop  offset="0.6707" style="stop-color:#332D62"/>
			<stop  offset="0.7526" style="stop-color:#47326A"/>
			<stop  offset="0.8337" style="stop-color:#623A75"/>
			<stop  offset="0.914" style="stop-color:#854483"/>
			<stop  offset="0.9929" style="stop-color:#AF5194"/>
			<stop  offset="1" style="stop-color:#B35296"/>
		</linearGradient>
		<path class="st7" d="M207.3,277.3c2.4,2.2,3.6,5.4,3.6,9.6v16.6H203v-3.6c-1.5,2.7-4.5,4.1-8.9,4.1c-2.2,0-4.1-0.4-5.8-1.2
			c-1.7-0.8-2.8-1.8-3.7-3.1s-1.3-2.8-1.3-4.5c0-2.7,1-4.9,3.1-6.4s5.1-2.3,9.4-2.3h6.7c0-1.8-0.5-3.2-1.7-4.2c-1.2-1-2.8-1.5-5-1.5
			c-1.5,0-3.1,0.3-4.5,0.8c-1.5,0.5-2.7,1.2-3.9,1.9l-3.1-5.9c1.5-1.2,3.5-1.9,5.7-2.6c2.2-0.6,4.5-0.9,6.8-0.9
			C201.4,274.1,204.8,275.1,207.3,277.3z M200.1,297.4c1.2-0.6,1.9-1.7,2.3-3v-3h-5.8c-3.5,0-5.1,1.2-5.1,3.3c0,1,0.4,1.9,1.3,2.6
			c0.9,0.6,2.1,0.9,3.5,0.9C197.7,298.4,198.9,298,200.1,297.4z"/>
		
			<linearGradient id="SVGID_9_" gradientUnits="userSpaceOnUse" x1="-85.0611" y1="186.1497" x2="317.664" y2="-24.4765" gradientTransform="matrix(1 0 0 -1 0 306)">
			<stop  offset="0" style="stop-color:#50BCDE"/>
			<stop  offset="2.641520e-02" style="stop-color:#4CB0D3"/>
			<stop  offset="0.1397" style="stop-color:#3E80A9"/>
			<stop  offset="0.2472" style="stop-color:#335A88"/>
			<stop  offset="0.3462" style="stop-color:#2B3E70"/>
			<stop  offset="0.4335" style="stop-color:#262E61"/>
			<stop  offset="0.5" style="stop-color:#24285C"/>
			<stop  offset="0.5872" style="stop-color:#28295E"/>
			<stop  offset="0.6707" style="stop-color:#332D62"/>
			<stop  offset="0.7526" style="stop-color:#47326A"/>
			<stop  offset="0.8337" style="stop-color:#623A75"/>
			<stop  offset="0.914" style="stop-color:#854483"/>
			<stop  offset="0.9929" style="stop-color:#AF5194"/>
			<stop  offset="1" style="stop-color:#B35296"/>
		</linearGradient>
		<path class="st8" d="M230.9,303.1c-2.3-0.6-4.1-1.3-5.5-2.2l2.8-6c1.3,0.8,2.8,1.5,4.6,2.1c1.8,0.5,3.6,0.8,5.4,0.8
			c3.6,0,5.4-0.9,5.4-2.7c0-0.8-0.5-1.4-1.4-1.8c-1-0.4-2.4-0.6-4.5-0.9c-2.4-0.4-4.4-0.8-5.9-1.3c-1.5-0.5-2.8-1.3-4-2.4
			c-1.2-1.2-1.7-2.8-1.7-5c0-1.8,0.5-3.5,1.5-4.9c1-1.4,2.6-2.6,4.6-3.3c2.1-0.8,4.5-1.2,7.2-1.2c2.1,0,4.1,0.3,6.2,0.6
			c2.1,0.4,3.7,1,5,1.8l-2.8,6c-2.6-1.4-5.4-2.2-8.3-2.2c-1.8,0-3.1,0.3-4,0.8c-0.9,0.5-1.4,1.2-1.4,1.9c0,0.9,0.5,1.5,1.4,1.9
			c1,0.4,2.6,0.6,4.6,1c2.4,0.4,4.4,0.8,5.8,1.3c1.5,0.5,2.8,1.3,4,2.4c1.2,1.2,1.7,2.8,1.7,5c0,1.8-0.5,3.3-1.7,4.8
			c-1.2,1.4-2.7,2.4-4.8,3.2c-2.1,0.8-4.5,1.2-7.3,1.2C235.5,304,233.2,303.7,230.9,303.1z"/>
		
			<linearGradient id="SVGID_10_" gradientUnits="userSpaceOnUse" x1="-76.0824" y1="203.3174" x2="326.6428" y2="-7.3088" gradientTransform="matrix(1 0 0 -1 0 306)">
			<stop  offset="0" style="stop-color:#50BCDE"/>
			<stop  offset="2.641520e-02" style="stop-color:#4CB0D3"/>
			<stop  offset="0.1397" style="stop-color:#3E80A9"/>
			<stop  offset="0.2472" style="stop-color:#335A88"/>
			<stop  offset="0.3462" style="stop-color:#2B3E70"/>
			<stop  offset="0.4335" style="stop-color:#262E61"/>
			<stop  offset="0.5" style="stop-color:#24285C"/>
			<stop  offset="0.5872" style="stop-color:#28295E"/>
			<stop  offset="0.6707" style="stop-color:#332D62"/>
			<stop  offset="0.7526" style="stop-color:#47326A"/>
			<stop  offset="0.8337" style="stop-color:#623A75"/>
			<stop  offset="0.914" style="stop-color:#854483"/>
			<stop  offset="0.9929" style="stop-color:#AF5194"/>
			<stop  offset="1" style="stop-color:#B35296"/>
		</linearGradient>
		<path class="st9" d="M272.3,302.1c-2.4-1.3-4.4-3.1-5.8-5.3c-1.4-2.2-2.1-4.9-2.1-7.7c0-2.8,0.6-5.4,2.1-7.7
			c1.4-2.3,3.3-4,5.8-5.3c2.4-1.3,5.3-1.9,8.3-1.9c3.1,0,5.8,0.6,8,1.9c2.3,1.3,4,3.1,5,5.5l-6.5,3.5c-1.5-2.7-3.7-4-6.5-4
			c-2.2,0-4,0.8-5.4,2.2c-1.4,1.4-2.2,3.3-2.2,5.9c0,2.4,0.8,4.5,2.2,5.9c1.4,1.4,3.2,2.2,5.4,2.2c2.8,0,5-1.3,6.5-4l6.5,3.6
			c-1,2.3-2.7,4.1-5,5.4c-2.3,1.3-5,1.9-8,1.9C277.5,304,274.7,303.4,272.3,302.1z"/>
		
			<linearGradient id="SVGID_11_" gradientUnits="userSpaceOnUse" x1="-67.7477" y1="219.2537" x2="334.9774" y2="8.6275" gradientTransform="matrix(1 0 0 -1 0 306)">
			<stop  offset="0" style="stop-color:#50BCDE"/>
			<stop  offset="2.641520e-02" style="stop-color:#4CB0D3"/>
			<stop  offset="0.1397" style="stop-color:#3E80A9"/>
			<stop  offset="0.2472" style="stop-color:#335A88"/>
			<stop  offset="0.3462" style="stop-color:#2B3E70"/>
			<stop  offset="0.4335" style="stop-color:#262E61"/>
			<stop  offset="0.5" style="stop-color:#24285C"/>
			<stop  offset="0.5872" style="stop-color:#28295E"/>
			<stop  offset="0.6707" style="stop-color:#332D62"/>
			<stop  offset="0.7526" style="stop-color:#47326A"/>
			<stop  offset="0.8337" style="stop-color:#623A75"/>
			<stop  offset="0.914" style="stop-color:#854483"/>
			<stop  offset="0.9929" style="stop-color:#AF5194"/>
			<stop  offset="1" style="stop-color:#B35296"/>
		</linearGradient>
		<path class="st10" d="M330.2,277.3c2.4,2.2,3.6,5.4,3.6,9.6v16.6H326v-3.6c-1.5,2.7-4.5,4.1-8.9,4.1c-2.2,0-4.1-0.4-5.8-1.2
			c-1.7-0.8-2.8-1.8-3.7-3.1c-0.9-1.3-1.3-2.8-1.3-4.5c0-2.7,1-4.9,3.1-6.4s5.1-2.3,9.4-2.3h6.7c0-1.8-0.5-3.2-1.7-4.2
			c-1.2-1-2.8-1.5-5-1.5c-1.5,0-3.1,0.3-4.5,0.8c-1.5,0.5-2.7,1.2-3.9,1.9l-3.1-5.9c1.5-1.2,3.5-1.9,5.7-2.6
			c2.2-0.6,4.5-0.9,6.8-0.9C324.3,274.1,327.8,275.1,330.2,277.3z M323,297.4c1.2-0.6,1.9-1.7,2.3-3v-3h-5.7c-3.5,0-5.1,1.2-5.1,3.3
			c0,1,0.4,1.9,1.3,2.6s2.1,0.9,3.5,0.9C320.7,298.4,322,298,323,297.4z"/>
		
			<linearGradient id="SVGID_12_" gradientUnits="userSpaceOnUse" x1="-56.8305" y1="240.1279" x2="345.8948" y2="29.5015" gradientTransform="matrix(1 0 0 -1 0 306)">
			<stop  offset="0" style="stop-color:#50BCDE"/>
			<stop  offset="2.641520e-02" style="stop-color:#4CB0D3"/>
			<stop  offset="0.1397" style="stop-color:#3E80A9"/>
			<stop  offset="0.2472" style="stop-color:#335A88"/>
			<stop  offset="0.3462" style="stop-color:#2B3E70"/>
			<stop  offset="0.4335" style="stop-color:#262E61"/>
			<stop  offset="0.5" style="stop-color:#24285C"/>
			<stop  offset="0.5872" style="stop-color:#28295E"/>
			<stop  offset="0.6707" style="stop-color:#332D62"/>
			<stop  offset="0.7526" style="stop-color:#47326A"/>
			<stop  offset="0.8337" style="stop-color:#623A75"/>
			<stop  offset="0.914" style="stop-color:#854483"/>
			<stop  offset="0.9929" style="stop-color:#AF5194"/>
			<stop  offset="1" style="stop-color:#B35296"/>
		</linearGradient>
		<path class="st11" d="M380.4,274.5v29h-8v-3.5c-1.2,1.3-2.4,2.2-4,2.8s-3.2,1-5,1c-3.9,0-6.8-1.2-9.1-3.3
			c-2.2-2.2-3.3-5.4-3.3-9.8v-16.4h8.5v15.2c0,4.6,1.9,7.1,5.9,7.1c2.1,0,3.6-0.6,4.9-1.9c1.2-1.3,1.8-3.2,1.8-5.9v-14.4h8.3V274.5z
			"/>
		
			<linearGradient id="SVGID_13_" gradientUnits="userSpaceOnUse" x1="-48.2144" y1="256.6022" x2="354.5108" y2="45.976" gradientTransform="matrix(1 0 0 -1 0 306)">
			<stop  offset="0" style="stop-color:#50BCDE"/>
			<stop  offset="2.641520e-02" style="stop-color:#4CB0D3"/>
			<stop  offset="0.1397" style="stop-color:#3E80A9"/>
			<stop  offset="0.2472" style="stop-color:#335A88"/>
			<stop  offset="0.3462" style="stop-color:#2B3E70"/>
			<stop  offset="0.4335" style="stop-color:#262E61"/>
			<stop  offset="0.5" style="stop-color:#24285C"/>
			<stop  offset="0.5872" style="stop-color:#28295E"/>
			<stop  offset="0.6707" style="stop-color:#332D62"/>
			<stop  offset="0.7526" style="stop-color:#47326A"/>
			<stop  offset="0.8337" style="stop-color:#623A75"/>
			<stop  offset="0.914" style="stop-color:#854483"/>
			<stop  offset="0.9929" style="stop-color:#AF5194"/>
			<stop  offset="1" style="stop-color:#B35296"/>
		</linearGradient>
		<path class="st12" d="M416.4,303.5l-6.4-8.9l-6.5,8.9h-9.1l11.2-14.6l-10.8-14.4h9.5l6.2,8.5l6.3-8.5h9l-10.8,14.1l11.2,14.9
			H416.4z"/>
	</g>
	
		<linearGradient id="SVGID_14_" gradientUnits="userSpaceOnUse" x1="-3.3266" y1="299.6393" x2="429.3266" y2="73.3607" gradientTransform="matrix(1 0 0 -1 0 306)">
		<stop  offset="0" style="stop-color:#50BCDE"/>
		<stop  offset="2.641520e-02" style="stop-color:#4CB0D3"/>
		<stop  offset="0.1397" style="stop-color:#3E80A9"/>
		<stop  offset="0.2472" style="stop-color:#335A88"/>
		<stop  offset="0.3462" style="stop-color:#2B3E70"/>
		<stop  offset="0.4335" style="stop-color:#262E61"/>
		<stop  offset="0.5" style="stop-color:#24285C"/>
		<stop  offset="0.5872" style="stop-color:#28295E"/>
		<stop  offset="0.6707" style="stop-color:#332D62"/>
		<stop  offset="0.7526" style="stop-color:#47326A"/>
		<stop  offset="0.8337" style="stop-color:#623A75"/>
		<stop  offset="0.914" style="stop-color:#854483"/>
		<stop  offset="0.9929" style="stop-color:#AF5194"/>
		<stop  offset="1" style="stop-color:#B35296"/>
	</linearGradient>
	<path class="st13" d="M426,239H0V0h426V239z M5.7,233.3h414.7V5.7H5.7V233.3z"/>
</g>
</svg>
