<?xml version="1.0" encoding="utf-8"?>
<!-- Generator: Adobe Illustrator 24.0.1, SVG Export Plug-In . SVG Version: 6.00 Build 0)  -->
<svg version="1.1" id="Calque_1" xmlns="http://www.w3.org/2000/svg" xmlns:xlink="http://www.w3.org/1999/xlink" x="0px" y="0px"
	 viewBox="0 0 352.5 378.2" style="enable-background:new 0 0 352.5 378.2;" xml:space="preserve">
<style type="text/css">
	.st0{fill:url(#SVGID_1_);}
	.st1{fill:url(#SVGID_2_);}
	.st2{fill:url(#SVGID_3_);}
	.st3{fill:url(#SVGID_4_);}
	.st4{fill:url(#SVGID_5_);}
	.st5{fill:url(#SVGID_6_);}
	.st6{fill:url(#SVGID_7_);}
	.st7{fill:url(#SVGID_8_);}
	.st8{fill:url(#SVGID_9_);}
	.st9{fill:url(#SVGID_10_);}
	.st10{fill:url(#SVGID_11_);}
	.st11{fill:url(#SVGID_12_);}
	.st12{fill:url(#SVGID_13_);}
</style>
<g>
	<linearGradient id="SVGID_1_" gradientUnits="userSpaceOnUse" x1="126.6111" y1="33.2867" x2="293.5861" y2="200.2617">
		<stop  offset="0" style="stop-color:#50BCDE"/>
		<stop  offset="2.641520e-02" style="stop-color:#4CB0D3"/>
		<stop  offset="0.1397" style="stop-color:#3E80A9"/>
		<stop  offset="0.2472" style="stop-color:#335A88"/>
		<stop  offset="0.3462" style="stop-color:#2B3E70"/>
		<stop  offset="0.4335" style="stop-color:#262E61"/>
		<stop  offset="0.5" style="stop-color:#24285C"/>
		<stop  offset="0.5872" style="stop-color:#28295E"/>
		<stop  offset="0.6707" style="stop-color:#332D62"/>
		<stop  offset="0.7526" style="stop-color:#47326A"/>
		<stop  offset="0.8337" style="stop-color:#623A75"/>
		<stop  offset="0.914" style="stop-color:#854483"/>
		<stop  offset="0.9929" style="stop-color:#AF5194"/>
		<stop  offset="1" style="stop-color:#B35296"/>
	</linearGradient>
	<path class="st0" d="M185,143.3c11.5-11.5,31.5-11.5,42.9,0c11.8,11.8,11.8,31.1,0,42.9L216,198.1l42.1,42l11.9-11.9
		c35-35,35-92,0-127c-17-17-39.5-26.3-63.5-26.3c-24,0-46.5,9.3-63.5,26.3l-11.9,11.9l42.1,42.1L185,143.3z"/>
	<linearGradient id="SVGID_2_" gradientUnits="userSpaceOnUse" x1="50.8952" y1="109.0027" x2="217.8701" y2="275.9777">
		<stop  offset="0" style="stop-color:#50BCDE"/>
		<stop  offset="2.641520e-02" style="stop-color:#4CB0D3"/>
		<stop  offset="0.1397" style="stop-color:#3E80A9"/>
		<stop  offset="0.2472" style="stop-color:#335A88"/>
		<stop  offset="0.3462" style="stop-color:#2B3E70"/>
		<stop  offset="0.4335" style="stop-color:#262E61"/>
		<stop  offset="0.5" style="stop-color:#24285C"/>
		<stop  offset="0.5872" style="stop-color:#28295E"/>
		<stop  offset="0.6707" style="stop-color:#332D62"/>
		<stop  offset="0.7526" style="stop-color:#47326A"/>
		<stop  offset="0.8337" style="stop-color:#623A75"/>
		<stop  offset="0.914" style="stop-color:#854483"/>
		<stop  offset="0.9929" style="stop-color:#AF5194"/>
		<stop  offset="1" style="stop-color:#B35296"/>
	</linearGradient>
	<path class="st1" d="M139.9,236.2c23,0,46-8.8,63.5-26.3l11.9-11.9l-42.1-42.1l-11.9,11.9c-11.8,11.8-31.1,11.8-42.9,0
		c-5.7-5.7-8.9-13.4-8.9-21.5c0-8.1,3.2-15.7,8.9-21.5l11.9-11.9L88.3,70.9L76.4,82.9c-35,35-35,92,0,127
		C93.9,227.4,116.9,236.2,139.9,236.2z"/>
</g>
<g>
	<linearGradient id="SVGID_3_" gradientUnits="userSpaceOnUse" x1="-56.3079" y1="216.2058" x2="110.6671" y2="383.1808">
		<stop  offset="0" style="stop-color:#50BCDE"/>
		<stop  offset="2.641520e-02" style="stop-color:#4CB0D3"/>
		<stop  offset="0.1397" style="stop-color:#3E80A9"/>
		<stop  offset="0.2472" style="stop-color:#335A88"/>
		<stop  offset="0.3462" style="stop-color:#2B3E70"/>
		<stop  offset="0.4335" style="stop-color:#262E61"/>
		<stop  offset="0.5" style="stop-color:#24285C"/>
		<stop  offset="0.5872" style="stop-color:#28295E"/>
		<stop  offset="0.6707" style="stop-color:#332D62"/>
		<stop  offset="0.7526" style="stop-color:#47326A"/>
		<stop  offset="0.8337" style="stop-color:#623A75"/>
		<stop  offset="0.914" style="stop-color:#854483"/>
		<stop  offset="0.9929" style="stop-color:#AF5194"/>
		<stop  offset="1" style="stop-color:#B35296"/>
	</linearGradient>
	<path class="st2" d="M7.8,302.6c-2.4-1.4-4.4-3.3-5.7-5.8c-1.4-2.5-2.1-5.3-2.1-8.4c0-3.1,0.7-5.9,2.1-8.4c1.4-2.5,3.3-4.4,5.7-5.8
		c2.5-1.4,5.2-2,8.3-2c2.6,0,4.9,0.5,7,1.5c2.1,1,3.8,2.5,5.1,4.4l-2.3,1.6c-1.2-1.6-2.6-2.8-4.3-3.6c-1.7-0.8-3.6-1.2-5.6-1.2
		c-2.5,0-4.7,0.6-6.7,1.7c-2,1.1-3.5,2.7-4.7,4.8c-1.1,2-1.7,4.4-1.7,7c0,2.7,0.6,5,1.7,7c1.1,2,2.7,3.6,4.7,4.8
		c2,1.1,4.2,1.7,6.7,1.7c2,0,3.9-0.4,5.6-1.2c1.7-0.8,3.1-2,4.3-3.6l2.3,1.6c-1.3,1.9-3,3.4-5.1,4.4c-2.1,1-4.4,1.5-7,1.5
		C13.1,304.7,10.3,304,7.8,302.6z"/>
	<linearGradient id="SVGID_4_" gradientUnits="userSpaceOnUse" x1="-40.6516" y1="200.5495" x2="126.3234" y2="367.5244">
		<stop  offset="0" style="stop-color:#50BCDE"/>
		<stop  offset="2.641520e-02" style="stop-color:#4CB0D3"/>
		<stop  offset="0.1397" style="stop-color:#3E80A9"/>
		<stop  offset="0.2472" style="stop-color:#335A88"/>
		<stop  offset="0.3462" style="stop-color:#2B3E70"/>
		<stop  offset="0.4335" style="stop-color:#262E61"/>
		<stop  offset="0.5" style="stop-color:#24285C"/>
		<stop  offset="0.5872" style="stop-color:#28295E"/>
		<stop  offset="0.6707" style="stop-color:#332D62"/>
		<stop  offset="0.7526" style="stop-color:#47326A"/>
		<stop  offset="0.8337" style="stop-color:#623A75"/>
		<stop  offset="0.914" style="stop-color:#854483"/>
		<stop  offset="0.9929" style="stop-color:#AF5194"/>
		<stop  offset="1" style="stop-color:#B35296"/>
	</linearGradient>
	<path class="st3" d="M57.4,275.3c2.1,2,3.2,5,3.2,8.9v20.3h-2.9v-5.7c-1,1.9-2.5,3.3-4.5,4.4c-2,1-4.3,1.6-7,1.6
		c-3.6,0-6.4-0.8-8.4-2.5c-2.1-1.7-3.1-3.9-3.1-6.6c0-2.7,1-4.8,2.8-6.5c1.9-1.6,4.9-2.5,9.1-2.5h11V284c0-3-0.8-5.3-2.4-6.8
		c-1.6-1.6-4-2.3-7.1-2.3c-2.1,0-4.2,0.4-6.1,1.1c-1.9,0.7-3.6,1.7-4.9,2.9l-1.5-2.2c1.6-1.4,3.5-2.5,5.8-3.3c2.2-0.8,4.6-1.2,7-1.2
		C52.2,272.2,55.3,273.2,57.4,275.3z M53.3,300.3c1.9-1.2,3.3-3,4.2-5.3v-6H46.6c-3.1,0-5.4,0.6-6.8,1.7c-1.4,1.1-2.1,2.7-2.1,4.7
		c0,2.1,0.8,3.7,2.3,4.9c1.6,1.2,3.7,1.8,6.6,1.8C49.2,302.2,51.5,301.6,53.3,300.3z"/>
	<linearGradient id="SVGID_5_" gradientUnits="userSpaceOnUse" x1="-19.0717" y1="178.9696" x2="147.9032" y2="345.9446">
		<stop  offset="0" style="stop-color:#50BCDE"/>
		<stop  offset="2.641520e-02" style="stop-color:#4CB0D3"/>
		<stop  offset="0.1397" style="stop-color:#3E80A9"/>
		<stop  offset="0.2472" style="stop-color:#335A88"/>
		<stop  offset="0.3462" style="stop-color:#2B3E70"/>
		<stop  offset="0.4335" style="stop-color:#262E61"/>
		<stop  offset="0.5" style="stop-color:#24285C"/>
		<stop  offset="0.5872" style="stop-color:#28295E"/>
		<stop  offset="0.6707" style="stop-color:#332D62"/>
		<stop  offset="0.7526" style="stop-color:#47326A"/>
		<stop  offset="0.8337" style="stop-color:#623A75"/>
		<stop  offset="0.914" style="stop-color:#854483"/>
		<stop  offset="0.9929" style="stop-color:#AF5194"/>
		<stop  offset="1" style="stop-color:#B35296"/>
	</linearGradient>
	<path class="st4" d="M101.2,272.5v32h-2.9v-6.9c-1.1,2.3-2.6,4-4.7,5.2c-2.1,1.2-4.5,1.9-7.4,1.9c-4.2,0-7.4-1.2-9.8-3.5
		c-2.4-2.3-3.6-5.7-3.6-10v-18.7h3.1v18.4c0,3.6,0.9,6.3,2.8,8.2c1.8,1.9,4.4,2.8,7.8,2.8c3.6,0,6.4-1.1,8.5-3.4
		c2.1-2.3,3.2-5.3,3.2-9.1v-17H101.2z"/>
	<linearGradient id="SVGID_6_" gradientUnits="userSpaceOnUse" x1="-2.6894" y1="162.5873" x2="164.2856" y2="329.5623">
		<stop  offset="0" style="stop-color:#50BCDE"/>
		<stop  offset="2.641520e-02" style="stop-color:#4CB0D3"/>
		<stop  offset="0.1397" style="stop-color:#3E80A9"/>
		<stop  offset="0.2472" style="stop-color:#335A88"/>
		<stop  offset="0.3462" style="stop-color:#2B3E70"/>
		<stop  offset="0.4335" style="stop-color:#262E61"/>
		<stop  offset="0.5" style="stop-color:#24285C"/>
		<stop  offset="0.5872" style="stop-color:#28295E"/>
		<stop  offset="0.6707" style="stop-color:#332D62"/>
		<stop  offset="0.7526" style="stop-color:#47326A"/>
		<stop  offset="0.8337" style="stop-color:#623A75"/>
		<stop  offset="0.914" style="stop-color:#854483"/>
		<stop  offset="0.9929" style="stop-color:#AF5194"/>
		<stop  offset="1" style="stop-color:#B35296"/>
	</linearGradient>
	<path class="st5" d="M134.5,304.4l-11-14.3l-11,14.3h-3.5l12.7-16.5l-12-15.5h3.5l10.3,13.3l10.3-13.3h3.4l-12,15.5l12.9,16.5
		H134.5z"/>
	<linearGradient id="SVGID_7_" gradientUnits="userSpaceOnUse" x1="14.1784" y1="145.7195" x2="181.1534" y2="312.6945">
		<stop  offset="0" style="stop-color:#50BCDE"/>
		<stop  offset="2.641520e-02" style="stop-color:#4CB0D3"/>
		<stop  offset="0.1397" style="stop-color:#3E80A9"/>
		<stop  offset="0.2472" style="stop-color:#335A88"/>
		<stop  offset="0.3462" style="stop-color:#2B3E70"/>
		<stop  offset="0.4335" style="stop-color:#262E61"/>
		<stop  offset="0.5" style="stop-color:#24285C"/>
		<stop  offset="0.5872" style="stop-color:#28295E"/>
		<stop  offset="0.6707" style="stop-color:#332D62"/>
		<stop  offset="0.7526" style="stop-color:#47326A"/>
		<stop  offset="0.8337" style="stop-color:#623A75"/>
		<stop  offset="0.914" style="stop-color:#854483"/>
		<stop  offset="0.9929" style="stop-color:#AF5194"/>
		<stop  offset="1" style="stop-color:#B35296"/>
	</linearGradient>
	<path class="st6" d="M171.1,275.7c2.3,2.3,3.5,5.7,3.5,10v18.7h-3.1V286c0-3.6-0.9-6.3-2.7-8.2s-4.4-2.8-7.6-2.8
		c-3.8,0-6.7,1.1-8.9,3.4c-2.2,2.3-3.3,5.3-3.3,9.1v17H146v-32h2.9v6.9c1.1-2.3,2.7-4,4.9-5.3c2.2-1.3,4.8-1.9,7.8-1.9
		C165.6,272.2,168.8,273.4,171.1,275.7z"/>
	<linearGradient id="SVGID_8_" gradientUnits="userSpaceOnUse" x1="33.156" y1="126.7419" x2="200.131" y2="293.7169">
		<stop  offset="0" style="stop-color:#50BCDE"/>
		<stop  offset="2.641520e-02" style="stop-color:#4CB0D3"/>
		<stop  offset="0.1397" style="stop-color:#3E80A9"/>
		<stop  offset="0.2472" style="stop-color:#335A88"/>
		<stop  offset="0.3462" style="stop-color:#2B3E70"/>
		<stop  offset="0.4335" style="stop-color:#262E61"/>
		<stop  offset="0.5" style="stop-color:#24285C"/>
		<stop  offset="0.5872" style="stop-color:#28295E"/>
		<stop  offset="0.6707" style="stop-color:#332D62"/>
		<stop  offset="0.7526" style="stop-color:#47326A"/>
		<stop  offset="0.8337" style="stop-color:#623A75"/>
		<stop  offset="0.914" style="stop-color:#854483"/>
		<stop  offset="0.9929" style="stop-color:#AF5194"/>
		<stop  offset="1" style="stop-color:#B35296"/>
	</linearGradient>
	<path class="st7" d="M186.9,264c-0.5-0.5-0.7-1.1-0.7-1.8c0-0.7,0.2-1.3,0.7-1.8c0.5-0.5,1.1-0.7,1.8-0.7s1.3,0.2,1.8,0.7
		c0.5,0.5,0.7,1.1,0.7,1.8s-0.3,1.3-0.7,1.8c-0.5,0.5-1.1,0.7-1.8,0.7S187.4,264.5,186.9,264z M187.2,272.5h3.1v32h-3.1V272.5z"/>
	<linearGradient id="SVGID_9_" gradientUnits="userSpaceOnUse" x1="43.5392" y1="116.3587" x2="210.5141" y2="283.3337">
		<stop  offset="0" style="stop-color:#50BCDE"/>
		<stop  offset="2.641520e-02" style="stop-color:#4CB0D3"/>
		<stop  offset="0.1397" style="stop-color:#3E80A9"/>
		<stop  offset="0.2472" style="stop-color:#335A88"/>
		<stop  offset="0.3462" style="stop-color:#2B3E70"/>
		<stop  offset="0.4335" style="stop-color:#262E61"/>
		<stop  offset="0.5" style="stop-color:#24285C"/>
		<stop  offset="0.5872" style="stop-color:#28295E"/>
		<stop  offset="0.6707" style="stop-color:#332D62"/>
		<stop  offset="0.7526" style="stop-color:#47326A"/>
		<stop  offset="0.8337" style="stop-color:#623A75"/>
		<stop  offset="0.914" style="stop-color:#854483"/>
		<stop  offset="0.9929" style="stop-color:#AF5194"/>
		<stop  offset="1" style="stop-color:#B35296"/>
	</linearGradient>
	<path class="st8" d="M207.5,302.6c-2.4-1.4-4.4-3.3-5.7-5.8c-1.4-2.5-2.1-5.3-2.1-8.4c0-3.1,0.7-5.9,2.1-8.4
		c1.4-2.5,3.3-4.4,5.7-5.8c2.5-1.4,5.2-2,8.3-2c2.6,0,4.9,0.5,7,1.5c2.1,1,3.8,2.5,5.1,4.4l-2.3,1.6c-1.2-1.6-2.6-2.8-4.3-3.6
		c-1.7-0.8-3.6-1.2-5.6-1.2c-2.5,0-4.7,0.6-6.7,1.7c-2,1.1-3.5,2.7-4.7,4.8c-1.1,2-1.7,4.4-1.7,7c0,2.7,0.6,5,1.7,7
		c1.1,2,2.7,3.6,4.7,4.8c2,1.1,4.2,1.7,6.7,1.7c2,0,3.9-0.4,5.6-1.2c1.7-0.8,3.1-2,4.3-3.6l2.3,1.6c-1.3,1.9-3,3.4-5.1,4.4
		c-2.1,1-4.4,1.5-7,1.5C212.8,304.7,210,304,207.5,302.6z"/>
	<linearGradient id="SVGID_10_" gradientUnits="userSpaceOnUse" x1="60.2847" y1="99.6132" x2="227.2597" y2="266.5882">
		<stop  offset="0" style="stop-color:#50BCDE"/>
		<stop  offset="2.641520e-02" style="stop-color:#4CB0D3"/>
		<stop  offset="0.1397" style="stop-color:#3E80A9"/>
		<stop  offset="0.2472" style="stop-color:#335A88"/>
		<stop  offset="0.3462" style="stop-color:#2B3E70"/>
		<stop  offset="0.4335" style="stop-color:#262E61"/>
		<stop  offset="0.5" style="stop-color:#24285C"/>
		<stop  offset="0.5872" style="stop-color:#28295E"/>
		<stop  offset="0.6707" style="stop-color:#332D62"/>
		<stop  offset="0.7526" style="stop-color:#47326A"/>
		<stop  offset="0.8337" style="stop-color:#623A75"/>
		<stop  offset="0.914" style="stop-color:#854483"/>
		<stop  offset="0.9929" style="stop-color:#AF5194"/>
		<stop  offset="1" style="stop-color:#B35296"/>
	</linearGradient>
	<path class="st9" d="M241,302.6c-2.4-1.4-4.3-3.3-5.7-5.8c-1.4-2.5-2.1-5.3-2.1-8.4c0-3.1,0.7-5.9,2.1-8.4c1.4-2.5,3.3-4.4,5.7-5.8
		c2.4-1.4,5.2-2.1,8.2-2.1c3,0,5.7,0.7,8.2,2.1c2.4,1.4,4.3,3.3,5.7,5.8c1.4,2.5,2.1,5.3,2.1,8.4c0,3.1-0.7,5.9-2.1,8.4
		c-1.4,2.5-3.3,4.4-5.7,5.8c-2.4,1.4-5.2,2.1-8.2,2.1C246.1,304.7,243.4,304,241,302.6z M255.7,300.2c1.9-1.1,3.5-2.7,4.6-4.8
		c1.1-2,1.7-4.4,1.7-7c0-2.6-0.6-4.9-1.7-7c-1.1-2-2.7-3.6-4.6-4.8c-1.9-1.1-4.1-1.7-6.6-1.7c-2.5,0-4.6,0.6-6.6,1.7
		c-1.9,1.2-3.5,2.7-4.6,4.8c-1.1,2-1.7,4.4-1.7,7c0,2.6,0.6,4.9,1.7,7c1.1,2,2.7,3.6,4.6,4.8c1.9,1.2,4.1,1.7,6.6,1.7
		C251.6,301.9,253.8,301.4,255.7,300.2z"/>
	<linearGradient id="SVGID_11_" gradientUnits="userSpaceOnUse" x1="77.1588" y1="82.7391" x2="244.1338" y2="249.7141">
		<stop  offset="0" style="stop-color:#50BCDE"/>
		<stop  offset="2.641520e-02" style="stop-color:#4CB0D3"/>
		<stop  offset="0.1397" style="stop-color:#3E80A9"/>
		<stop  offset="0.2472" style="stop-color:#335A88"/>
		<stop  offset="0.3462" style="stop-color:#2B3E70"/>
		<stop  offset="0.4335" style="stop-color:#262E61"/>
		<stop  offset="0.5" style="stop-color:#24285C"/>
		<stop  offset="0.5872" style="stop-color:#28295E"/>
		<stop  offset="0.6707" style="stop-color:#332D62"/>
		<stop  offset="0.7526" style="stop-color:#47326A"/>
		<stop  offset="0.8337" style="stop-color:#623A75"/>
		<stop  offset="0.914" style="stop-color:#854483"/>
		<stop  offset="0.9929" style="stop-color:#AF5194"/>
		<stop  offset="1" style="stop-color:#B35296"/>
	</linearGradient>
	<path class="st10" d="M274.6,259h3.1v45.4h-3.1V259z"/>
	<linearGradient id="SVGID_12_" gradientUnits="userSpaceOnUse" x1="85.8986" y1="73.9993" x2="252.8736" y2="240.9743">
		<stop  offset="0" style="stop-color:#50BCDE"/>
		<stop  offset="2.641520e-02" style="stop-color:#4CB0D3"/>
		<stop  offset="0.1397" style="stop-color:#3E80A9"/>
		<stop  offset="0.2472" style="stop-color:#335A88"/>
		<stop  offset="0.3462" style="stop-color:#2B3E70"/>
		<stop  offset="0.4335" style="stop-color:#262E61"/>
		<stop  offset="0.5" style="stop-color:#24285C"/>
		<stop  offset="0.5872" style="stop-color:#28295E"/>
		<stop  offset="0.6707" style="stop-color:#332D62"/>
		<stop  offset="0.7526" style="stop-color:#47326A"/>
		<stop  offset="0.8337" style="stop-color:#623A75"/>
		<stop  offset="0.914" style="stop-color:#854483"/>
		<stop  offset="0.9929" style="stop-color:#AF5194"/>
		<stop  offset="1" style="stop-color:#B35296"/>
	</linearGradient>
	<path class="st11" d="M310.5,275.3c2.1,2,3.2,5,3.2,8.9v20.3h-2.9v-5.7c-1,1.9-2.5,3.3-4.5,4.4c-2,1-4.3,1.6-7,1.6
		c-3.6,0-6.4-0.8-8.4-2.5c-2.1-1.7-3.1-3.9-3.1-6.6c0-2.7,1-4.8,2.8-6.5c1.9-1.6,4.9-2.5,9.1-2.5h11V284c0-3-0.8-5.3-2.4-6.8
		c-1.6-1.6-4-2.3-7.1-2.3c-2.1,0-4.2,0.4-6.1,1.1c-1.9,0.7-3.6,1.7-4.9,2.9l-1.5-2.2c1.6-1.4,3.5-2.5,5.8-3.3c2.2-0.8,4.6-1.2,7-1.2
		C305.3,272.2,308.4,273.2,310.5,275.3z M306.4,300.3c1.9-1.2,3.3-3,4.2-5.3v-6h-10.9c-3.1,0-5.4,0.6-6.8,1.7
		c-1.4,1.1-2.1,2.7-2.1,4.7c0,2.1,0.8,3.7,2.3,4.9c1.6,1.2,3.7,1.8,6.6,1.8C302.3,302.2,304.6,301.6,306.4,300.3z"/>
	<linearGradient id="SVGID_13_" gradientUnits="userSpaceOnUse" x1="102.8238" y1="57.0741" x2="269.7988" y2="224.0491">
		<stop  offset="0" style="stop-color:#50BCDE"/>
		<stop  offset="2.641520e-02" style="stop-color:#4CB0D3"/>
		<stop  offset="0.1397" style="stop-color:#3E80A9"/>
		<stop  offset="0.2472" style="stop-color:#335A88"/>
		<stop  offset="0.3462" style="stop-color:#2B3E70"/>
		<stop  offset="0.4335" style="stop-color:#262E61"/>
		<stop  offset="0.5" style="stop-color:#24285C"/>
		<stop  offset="0.5872" style="stop-color:#28295E"/>
		<stop  offset="0.6707" style="stop-color:#332D62"/>
		<stop  offset="0.7526" style="stop-color:#47326A"/>
		<stop  offset="0.8337" style="stop-color:#623A75"/>
		<stop  offset="0.914" style="stop-color:#854483"/>
		<stop  offset="0.9929" style="stop-color:#AF5194"/>
		<stop  offset="1" style="stop-color:#B35296"/>
	</linearGradient>
	<path class="st12" d="M327,303.5c-2.3-0.8-4.2-1.8-5.5-2.9l1.4-2.5c1.3,1.1,3,2,5,2.8c2.1,0.7,4.2,1.1,6.5,1.1
		c3.2,0,5.6-0.5,7.1-1.6c1.5-1.1,2.3-2.5,2.3-4.4c0-1.4-0.4-2.4-1.3-3.2c-0.8-0.8-1.9-1.3-3.1-1.7c-1.2-0.4-2.9-0.8-5.1-1.2
		c-2.5-0.4-4.6-0.9-6.1-1.5c-1.6-0.5-2.9-1.4-4-2.6c-1.1-1.2-1.6-2.8-1.6-4.9c0-2.5,1-4.6,3.1-6.3c2.1-1.7,5.1-2.5,9-2.5
		c2,0,4.1,0.3,6.1,0.9c2,0.6,3.6,1.3,4.9,2.3l-1.4,2.5c-1.3-0.9-2.8-1.7-4.5-2.1c-1.7-0.5-3.4-0.7-5.2-0.7c-3,0-5.2,0.5-6.7,1.6
		c-1.5,1.1-2.3,2.6-2.3,4.4c0,1.4,0.4,2.5,1.3,3.3c0.9,0.8,1.9,1.4,3.2,1.8c1.2,0.4,3,0.8,5.2,1.3c2.5,0.4,4.5,0.9,6,1.4
		c1.5,0.5,2.8,1.3,3.9,2.5c1.1,1.2,1.6,2.7,1.6,4.7c0,2.7-1.1,4.8-3.3,6.4c-2.2,1.6-5.3,2.4-9.3,2.4
		C331.8,304.7,329.4,304.3,327,303.5z"/>
</g>
</svg>
