<?xml version="1.0" encoding="utf-8"?>
<!-- Generator: Adobe Illustrator 24.0.1, SVG Export Plug-In . SVG Version: 6.00 Build 0)  -->
<svg version="1.1" id="Calque_1" xmlns="http://www.w3.org/2000/svg" xmlns:xlink="http://www.w3.org/1999/xlink" x="0px" y="0px"
	 viewBox="0 0 62.2 61.3" style="enable-background:new 0 0 62.2 61.3;" xml:space="preserve">
<style type="text/css">
	.st0{fill:#83CD29;}
</style>
<sodipodi:namedview  bordercolor="#666666" borderopacity="1" fit-margin-bottom="0" fit-margin-left="0" fit-margin-right="0" fit-margin-top="0" gridtolerance="10" guidetolerance="10" id="namedview1580" objecttolerance="10" pagecolor="#ffffff" showgrid="true" showguides="true">
	<inkscape:grid  id="grid2369" originx="670" originy="333" type="xygrid"></inkscape:grid>
	<sodipodi:guide  id="guide2373" orientation="1,0" position="160,203.25003"></sodipodi:guide>
</sodipodi:namedview>
<g>
	<path class="st0" d="M54.2,14.9l-20.7-12c-1.3-0.7-3-0.7-4.3,0l-20.9,12C6.9,15.6,6,17.1,6,18.7v24c0,1.6,0.9,3,2.3,3.8l5.5,3.1
		c2.6,1.3,3.4,1.3,4.6,1.3c3.9,0,5.9-2.4,5.9-6.5V20.7c0-0.3,0.2-0.8-0.1-0.8h-2.6c-0.3,0-1,0.5-1,0.8v23.7c0,1.8-1.7,3.6-4.8,2.1
		l-5.7-3.3c-0.2-0.1-0.3-0.3-0.3-0.6v-24c0-0.2,0.2-0.5,0.4-0.6L31,6.1c0.2-0.1,0.5-0.1,0.7,0l20.6,12c0.2,0.1,0.2,0.3,0.2,0.6v24
		c0,0.2,0,0.5-0.2,0.6l-20.7,12c-0.2,0.1-0.4,0.1-0.6,0L25.7,52c-0.2-0.1-0.4-0.1-0.5,0c-1.5,0.8-1.7,0.9-3.1,1.4
		c-0.3,0.1-0.8,0.3,0.2,0.9l6.9,4.1c0.7,0.4,1.4,0.6,2.2,0.6c0.8,0,1.5-0.2,2.2-0.6l20.6-12c1.3-0.8,2-2.2,2-3.8v-24
		C56.2,17.1,55.5,15.6,54.2,14.9z M37.8,38.8c-5.5,0-6.7-1.5-7.1-4.3c0-0.3-0.3-0.6-0.6-0.6h-2.7c-0.3,0-0.6,0.4-0.6,0.7
		c0,3.5,1.9,7.7,11,7.7c6.6,0,10.4-2.6,10.4-7.1c0-4.5-3-5.7-9.4-6.5c-6.5-0.9-7.1-1.3-7.1-2.8c0-1.2,0.6-2.9,5.3-2.9
		c4.3,0,5.8,0.9,6.5,3.8c0.1,0.3,0.3,0.5,0.6,0.5h2.7c0.2,0,0.3-0.1,0.4-0.2c0.1-0.1,0.2-0.3,0.2-0.5c-0.4-5-3.7-7.3-10.4-7.3
		c-5.9,0-9.5,2.5-9.5,6.7c0,4.5,3.5,5.8,9.2,6.4c6.8,0.7,7.3,1.7,7.3,3C44,37.8,42.1,38.8,37.8,38.8z"/>
</g>
</svg>
