<?xml version="1.0" encoding="utf-8"?>
<!-- Generator: Adobe Illustrator 24.0.1, SVG Export Plug-In . SVG Version: 6.00 Build 0)  -->
<svg version="1.1" id="Calque_1" xmlns="http://www.w3.org/2000/svg" xmlns:xlink="http://www.w3.org/1999/xlink" x="0px" y="0px"
	 viewBox="0 0 62.2 61.3" style="enable-background:new 0 0 62.2 61.3;" xml:space="preserve">
<style type="text/css">
	.st0{fill:#001E36;}
	.st1{fill:#31A8FF;}
</style>
<g transform="matrix(1.000000125 0 0 1.000000125 159.9999625 83.00005)">
	<path class="st0" d="M-147.7-80.7h37.6c5.7,0,10.3,4.6,10.3,10.3v36.1c0,5.7-4.6,10.3-10.3,10.3h-37.6c-5.7,0-10.3-4.6-10.3-10.3
		v-36.1C-158-76.1-153.4-80.7-147.7-80.7z"/>
	<g>
		<path class="st1" d="M-144.9-40.9v-24.9c0-0.2,0.1-0.3,0.2-0.3c0.4,0,0.8,0,1.4,0c0.6,0,1.2,0,1.8,0c0.7,0,1.4,0,2.1,0
			c0.8,0,1.5,0,2.2,0c2,0,3.6,0.2,5,0.8c1.2,0.4,2.3,1.1,3.2,2c0.8,0.8,1.4,1.7,1.8,2.8c0.4,1,0.6,2.1,0.6,3.1
			c0,2.1-0.5,3.8-1.5,5.2c-1,1.4-2.3,2.4-3.9,3c-1.6,0.6-3.5,0.8-5.5,0.8c-0.6,0-1,0-1.2,0c-0.2,0-0.6,0-1,0v7.8
			c0,0.2-0.1,0.3-0.3,0.3h-4.7C-144.8-40.6-144.9-40.7-144.9-40.9L-144.9-40.9z M-139.6-61.5v8.1c0.3,0,0.7,0,0.9,0h1.3
			c0.9,0,1.9-0.1,2.8-0.4c0.8-0.2,1.5-0.7,2-1.3c0.5-0.6,0.8-1.4,0.8-2.5c0-0.8-0.2-1.5-0.6-2.2c-0.4-0.6-1-1.1-1.7-1.4
			c-0.9-0.4-1.9-0.5-2.9-0.5c-0.6,0-1.2,0-1.6,0C-139.1-61.5-139.4-61.5-139.6-61.5L-139.6-61.5z"/>
		<path class="st1" d="M-111.5-54.8c-0.7-0.4-1.5-0.7-2.3-0.8c-0.9-0.2-1.8-0.3-2.7-0.3c-0.5,0-1,0-1.5,0.2
			c-0.3,0.1-0.6,0.2-0.8,0.5c-0.1,0.2-0.2,0.4-0.2,0.7s0.1,0.4,0.2,0.6c0.2,0.3,0.5,0.5,0.8,0.7c0.6,0.3,1.1,0.6,1.7,0.8
			c1.3,0.4,2.6,1,3.7,1.8c0.8,0.5,1.5,1.2,1.9,2c0.4,0.8,0.6,1.6,0.6,2.5c0,1.1-0.3,2.3-0.9,3.2c-0.7,1-1.6,1.7-2.7,2.2
			c-1.2,0.5-2.6,0.8-4.4,0.8c-1.1,0-2.2-0.1-3.3-0.3c-0.8-0.1-1.7-0.4-2.5-0.8c-0.2-0.1-0.3-0.3-0.3-0.5v-4.2c0-0.1,0-0.2,0.1-0.2
			c0.1,0,0.1,0,0.2,0c0.9,0.6,1.9,0.9,3,1.2c0.9,0.2,1.9,0.4,2.9,0.4c0.9,0,1.6-0.1,2-0.3c0.4-0.2,0.7-0.6,0.7-1
			c0-0.3-0.2-0.7-0.6-1c-0.4-0.3-1.2-0.7-2.4-1.1c-1.2-0.4-2.4-1-3.4-1.7c-0.8-0.5-1.4-1.2-1.8-2.1c-0.4-0.8-0.6-1.6-0.6-2.5
			c0-1,0.3-2,0.8-2.9c0.6-1,1.5-1.7,2.5-2.2c1.1-0.6,2.6-0.8,4.3-0.8c1,0,2,0.1,3,0.2c0.7,0.1,1.4,0.3,2.1,0.6
			c0.1,0,0.2,0.1,0.2,0.2c0,0.1,0,0.2,0,0.3v3.9c0,0.1,0,0.2-0.1,0.2C-111.2-54.7-111.4-54.7-111.5-54.8L-111.5-54.8z"/>
	</g>
</g>
</svg>
