<?xml version="1.0" encoding="utf-8"?>
<!-- Generator: Adobe Illustrator 24.0.1, SVG Export Plug-In . SVG Version: 6.00 Build 0)  -->
<svg version="1.1" id="Calque_1" xmlns="http://www.w3.org/2000/svg" xmlns:xlink="http://www.w3.org/1999/xlink" x="0px" y="0px"
	 viewBox="0 0 62.2 61.3" style="enable-background:new 0 0 62.2 61.3;" xml:space="preserve">
<style type="text/css">
	.st0{fill:#53C1DE;}
</style>
<sodipodi:namedview  bordercolor="#666666" borderopacity="1" fit-margin-bottom="0" fit-margin-left="0" fit-margin-right="0" fit-margin-top="0" gridtolerance="10" guidetolerance="10" id="namedview1580" objecttolerance="10" pagecolor="#ffffff" showgrid="true" showguides="true">
	<inkscape:grid  id="grid2369" originx="670" originy="333" type="xygrid"></inkscape:grid>
	<sodipodi:guide  id="guide2373" orientation="1,0" position="160,203.25003"></sodipodi:guide>
</sodipodi:namedview>
<g>
	<path class="st0" d="M49.4,21.8c-0.6-0.2-1.2-0.4-1.8-0.6c0.1-0.4,0.2-0.8,0.3-1.2c1.4-6.7,0.5-12.1-2.6-13.9
		c-3-1.7-7.8,0.1-12.7,4.3c-0.5,0.4-1,0.9-1.4,1.3c-0.3-0.3-0.6-0.6-0.9-0.9c-5.1-4.5-10.3-6.5-13.3-4.7c-3,1.7-3.8,6.8-2.6,13.1
		c0.1,0.6,0.3,1.3,0.4,1.9c-0.7,0.2-1.4,0.4-2.1,0.7c-6,2.1-9.8,5.4-9.8,8.8c0,3.5,4.1,7,10.4,9.2c0.5,0.2,1,0.3,1.5,0.5
		c-0.2,0.7-0.3,1.3-0.4,2c-1.2,6.2-0.3,11.2,2.7,12.9c3,1.8,8.2,0,13.1-4.4c0.4-0.3,0.8-0.7,1.2-1.1c0.5,0.5,1,0.9,1.5,1.4
		c4.8,4.1,9.6,5.8,12.5,4.1c3-1.8,4-7.1,2.7-13.6c-0.1-0.5-0.2-1-0.3-1.5c0.4-0.1,0.7-0.2,1.1-0.3c6.5-2.2,10.7-5.6,10.7-9.2
		C59.4,27.2,55.5,23.9,49.4,21.8z M34.1,12.2c4.2-3.6,8.1-5.1,9.9-4.1c1.9,1.1,2.6,5.5,1.4,11.3c-0.1,0.4-0.2,0.8-0.3,1.1
		c-2.4-0.5-4.9-0.9-7.6-1.2c-1.6-2.2-3.2-4.2-4.8-6C33.2,13,33.7,12.6,34.1,12.2z M19.5,33.5c0.5,1,1,2,1.6,2.9c0.6,1,1.2,2,1.8,2.9
		c-1.9-0.2-3.6-0.5-5.2-0.8C18.2,36.9,18.8,35.2,19.5,33.5z M19.5,27.8c-0.7-1.7-1.3-3.3-1.8-4.9c1.6-0.4,3.3-0.7,5.1-0.9
		c-0.6,0.9-1.2,1.9-1.7,2.9C20.5,25.8,20,26.8,19.5,27.8z M20.8,30.7c0.7-1.6,1.6-3.1,2.4-4.6v0c0.9-1.5,1.8-3,2.7-4.4
		c1.7-0.1,3.4-0.2,5.2-0.2c1.8,0,3.5,0.1,5.2,0.2c1,1.4,1.9,2.9,2.7,4.4c0.9,1.5,1.7,3,2.4,4.5c-0.8,1.6-1.6,3.1-2.4,4.6h0
		c-0.9,1.5-1.8,3-2.7,4.4c-1.7,0.1-3.4,0.2-5.2,0.2c-1.8,0-3.5-0.1-5.1-0.2c-1-1.4-1.9-2.9-2.8-4.4C22.3,33.7,21.5,32.2,20.8,30.7z
		 M41.1,36.4c0.6-1,1.1-2,1.6-3c0.8,1.7,1.4,3.4,1.9,5c-1.6,0.4-3.4,0.7-5.3,0.9C40,38.4,40.5,37.4,41.1,36.4z M42.7,27.8
		c-0.5-1-1.1-2-1.6-3c-0.6-1-1.1-1.9-1.7-2.8c1.8,0.2,3.5,0.5,5.2,0.9C44.1,24.5,43.4,26.1,42.7,27.8z M31.1,15.2
		c1.1,1.2,2.2,2.6,3.3,4c-2.2-0.1-4.5-0.1-6.7,0C28.9,17.7,30,16.4,31.1,15.2z M18.1,8.2c1.9-1.1,6.1,0.5,10.5,4.4
		c0.3,0.3,0.6,0.5,0.9,0.8c-1.6,1.8-3.3,3.8-4.8,6c-2.7,0.2-5.2,0.6-7.6,1.2c-0.1-0.6-0.3-1.2-0.4-1.7v0
		C15.6,13.4,16.3,9.3,18.1,8.2z M15.3,37.9c-0.5-0.1-0.9-0.3-1.4-0.4c-2.8-0.9-5-2.2-6.6-3.5c-1.4-1.2-2.1-2.4-2.1-3.4
		c0-2.1,3.1-4.7,8.2-6.5c0.6-0.2,1.3-0.4,2-0.6c0.7,2.3,1.6,4.7,2.8,7.2C17,33.1,16,35.6,15.3,37.9z M28.4,49
		c-2.2,1.9-4.4,3.3-6.3,4h0c-1.7,0.6-3.1,0.6-4,0.1c-1.8-1-2.5-5-1.5-10.4c0.1-0.6,0.3-1.3,0.4-1.9c2.3,0.5,4.9,0.9,7.6,1.1
		c1.6,2.2,3.2,4.2,4.9,6C29.2,48.3,28.8,48.6,28.4,49z M31.2,46.2c-1.1-1.2-2.3-2.6-3.4-4.1c1.1,0,2.2,0.1,3.3,0.1
		c1.2,0,2.3,0,3.4-0.1C33.4,43.6,32.3,45,31.2,46.2z M45.9,49.6c-0.3,1.8-1,3-1.9,3.5c-1.8,1-5.6-0.3-9.7-3.9
		c-0.5-0.4-0.9-0.8-1.4-1.3c1.6-1.7,3.2-3.8,4.8-6c2.7-0.2,5.3-0.6,7.7-1.2c0.1,0.5,0.2,0.9,0.3,1.4C46.2,45,46.3,47.6,45.9,49.6z
		 M48,37.5L48,37.5c-0.3,0.1-0.6,0.2-1,0.3c-0.7-2.3-1.7-4.7-2.9-7.2c1.1-2.4,2.1-4.8,2.8-7.1c0.6,0.2,1.1,0.3,1.7,0.5
		c5.2,1.8,8.4,4.5,8.4,6.5C57,32.8,53.6,35.6,48,37.5z"/>
	<path class="st0" d="M31.1,35.7c2.8,0,5.1-2.3,5.1-5.1c0-2.8-2.3-5.1-5.1-5.1c-2.8,0-5.1,2.3-5.1,5.1C26,33.4,28.3,35.7,31.1,35.7z
		"/>
</g>
</svg>
