<?xml version="1.0" encoding="utf-8"?>
<!-- Generator: Adobe Illustrator 24.0.1, SVG Export Plug-In . SVG Version: 6.00 Build 0)  -->
<svg version="1.1" id="Calque_1" xmlns="http://www.w3.org/2000/svg" xmlns:xlink="http://www.w3.org/1999/xlink" x="0px" y="0px"
	 viewBox="0 0 62.2 61.3" style="enable-background:new 0 0 62.2 61.3;" xml:space="preserve">
<style type="text/css">
	.st0{fill:#6772E5;}
	.st1{fill-rule:evenodd;clip-rule:evenodd;fill:#FFFFFF;}
</style>
<g id="Layer_2">
	<g id="Layer_1-2">
		<path class="st0" d="M15.5,2.3h31.2c7,0,12.7,5.7,12.7,12.7v31.2c0,7-5.7,12.7-12.7,12.7H15.5c-7,0-12.7-5.7-12.7-12.7V15
			C2.8,8,8.5,2.3,15.5,2.3z"/>
		<path class="st1" d="M28.9,24.3c0-1.4,1.1-2,2.9-2c3,0.1,5.9,0.8,8.6,2.2v-8c-2.7-1.1-5.6-1.6-8.6-1.6c-7,0-11.7,3.7-11.7,9.8
			c0,9.5,13.1,8,13.1,12.1c0,1.6-1.4,2.1-3.3,2.1c-3.4-0.2-6.6-1.1-9.5-2.8v8.2c3,1.3,6.2,2,9.4,2c7.2,0,12.1-3.5,12.1-9.8
			C42,26.3,28.9,28.2,28.9,24.3z"/>
	</g>
</g>
</svg>
