<?xml version="1.0" encoding="utf-8"?>
<!-- Generator: Adobe Illustrator 24.0.1, SVG Export Plug-In . SVG Version: 6.00 Build 0)  -->
<svg version="1.1" id="Calque_1" xmlns="http://www.w3.org/2000/svg" xmlns:xlink="http://www.w3.org/1999/xlink" x="0px" y="0px"
	 viewBox="0 0 94.6 92.6" style="enable-background:new 0 0 94.6 92.6;" xml:space="preserve">
<style type="text/css">
	.st0{fill:#21B6D4;}
</style>
<path class="st0" d="M47.3,20.6c-11.4,0-18.6,5.7-21.5,17.2c4.3-5.7,9.3-7.9,15-6.4c3.3,0.8,5.6,3.2,8.2,5.8
	c4.2,4.3,9.1,9.2,19.7,9.2c11.4,0,18.6-5.7,21.4-17.2c-4.3,5.7-9.3,7.9-15,6.4c-3.3-0.8-5.6-3.2-8.2-5.8
	C62.8,25.5,57.9,20.6,47.3,20.6L47.3,20.6z M25.8,46.3C14.4,46.3,7.3,52,4.4,63.5c4.3-5.7,9.3-7.9,15-6.4c3.3,0.8,5.6,3.2,8.2,5.8
	c4.2,4.3,9.1,9.2,19.7,9.2c11.4,0,18.6-5.7,21.5-17.2c-4.3,5.7-9.3,7.9-15,6.4c-3.3-0.8-5.6-3.2-8.2-5.8
	C41.4,51.2,36.5,46.3,25.8,46.3L25.8,46.3z"/>
</svg>
