<?xml version="1.0" encoding="utf-8"?>
<!-- Generator: Adobe Illustrator 24.0.1, SVG Export Plug-In . SVG Version: 6.00 Build 0)  -->
<svg version="1.1" id="Calque_1" xmlns="http://www.w3.org/2000/svg" xmlns:xlink="http://www.w3.org/1999/xlink" x="0px" y="0px"
	 viewBox="0 0 62.2 61.3" style="enable-background:new 0 0 62.2 61.3;" xml:space="preserve">
<path d="M31.1,2.3C15.4,2.3,2.8,15,2.8,30.6S15.4,59,31.1,59s28.3-12.7,28.3-28.3c0,0,0,0,0,0C59.4,15,46.7,2.3,31.1,2.3z M5.6,30.6
	c0-3.6,0.7-7.1,2.2-10.4L20,53.6C11.2,49.3,5.6,40.4,5.6,30.6z M31.1,56.1c-2.4,0-4.9-0.3-7.2-1l7.6-22.2l7.8,21.5
	c0.1,0.1,0.1,0.2,0.2,0.4C36.8,55.6,34,56.1,31.1,56.1z M34.6,18.7c1.5-0.1,2.9-0.2,2.9-0.2c0.6-0.1,1-0.6,1-1.1
	c-0.1-0.6-0.5-1-1.1-1c0,0-4.1,0.3-6.8,0.3c-2.5,0-6.7-0.3-6.7-0.3c-0.6,0-1.1,0.4-1.1,1c0,0.6,0.4,1.1,1,1.1c0,0,1.3,0.2,2.7,0.2
	l4,10.9l-5.6,16.7l-9.3-27.6c1.5-0.1,2.9-0.2,2.9-0.2c0.6-0.1,1-0.6,1-1.1c-0.1-0.6-0.5-1-1.1-1c0,0-4.1,0.3-6.8,0.3
	c-0.5,0-1,0-1.6,0c7.7-11.8,23.5-15,35.3-7.3c1.1,0.7,2.2,1.6,3.2,2.5c-0.1,0-0.2,0-0.3,0c-2.4,0.1-4.3,2.1-4.3,4.5
	c0.3,2.2,1.1,4.3,2.5,6c1.3,2.1,2.1,4.5,2.1,7c-0.3,2.8-0.9,5.6-1.9,8.2l-2.5,8.5L34.6,18.7z M43.9,52.7l7.8-22.5
	c1.2-2.9,1.9-6,1.9-9.1c0-0.9-0.1-1.8-0.2-2.6C60.1,30.5,55.9,45.7,43.9,52.7z"/>
</svg>
