<?xml version="1.0" encoding="utf-8"?>
<!-- Generator: Adobe Illustrator 24.0.1, SVG Export Plug-In . SVG Version: 6.00 Build 0)  -->
<svg version="1.1" id="Calque_1" xmlns="http://www.w3.org/2000/svg" xmlns:xlink="http://www.w3.org/1999/xlink" x="0px" y="0px"
	 viewBox="0 0 62.2 61.3" style="enable-background:new 0 0 62.2 61.3;" xml:space="preserve">
<style type="text/css">
	.st0{fill:#FF0000;}
	.st1{fill:#FFFFFF;}
</style>
<g id="g5" transform="scale(0.58823529,0.58823529)">
	<path id="path7" class="st0" d="M99.1,28.9c-1.1-4.1-4.4-7.4-8.5-8.5c-7.5-2.1-37.7-2.1-37.7-2.1s-30.2,0-37.7,2
		c-4,1.1-7.4,4.4-8.5,8.6c-2,7.5-2,23.2-2,23.2s0,15.7,2,23.2c1.1,4.1,4.4,7.4,8.5,8.5c7.6,2.1,37.7,2.1,37.7,2.1s30.2,0,37.7-2
		c4.1-1.1,7.4-4.4,8.5-8.5c2-7.5,2-23.2,2-23.2S101.1,36.5,99.1,28.9z"/>
	<polygon id="polygon9" class="st1" points="68.4,52.1 43.3,37.7 43.3,66.6 	"/>
</g>
</svg>
